<svg xmlns="http://www.w3.org/2000/svg" xmlns:xlink="http://www.w3.org/1999/xlink" width="500" zoomAndPan="magnify" viewBox="0 0 375 374.999991" height="500" preserveAspectRatio="xMidYMid meet" version="1.2"><defs><clipPath id="8623fa03aa"><rect x="0" width="272" y="0" height="253"/></clipPath><clipPath id="9c7be73b93"><path d="M 224 17 L 353.921875 17 L 353.921875 106 L 224 106 Z M 224 17 "/></clipPath><clipPath id="49f153544d"><rect x="0" width="354" y="0" height="132"/></clipPath><clipPath id="84727f2c8a"><rect x="0" width="92" y="0" height="15"/></clipPath></defs><g id="cc21b05cb7"><rect x="0" width="375" y="0" height="374.999991" style="fill:#ffffff;fill-opacity:1;stroke:none;"/><rect x="0" width="375" y="0" height="374.999991" style="fill:#ffffff;fill-opacity:1;stroke:none;"/><g transform="matrix(1,0,0,1,46,72)"><g clip-path="url(#8623fa03aa)"><g style="fill:#eeba2b;fill-opacity:1;"><g transform="translate(1.770734, 194.376448)"><path style="stroke:none" d="M 12.4375 0 L 12.4375 -3.171875 C 16.175781 -4.304688 18.734375 -6.742188 20.109375 -10.484375 C 21.492188 -14.222656 22.1875 -21.046875 22.1875 -30.953125 L 22.1875 -139.6875 C 22.1875 -149.757812 21.492188 -156.625 20.109375 -160.28125 C 18.734375 -163.9375 16.175781 -166.335938 12.4375 -167.484375 L 12.4375 -170.640625 L 61.921875 -170.640625 C 78.828125 -170.640625 92.113281 -168.28125 101.78125 -163.5625 C 111.445312 -158.851562 118.3125 -152.84375 122.375 -145.53125 C 126.4375 -138.21875 128.46875 -130.582031 128.46875 -122.625 C 128.46875 -106.375 122.65625 -93.128906 111.03125 -82.890625 C 99.414062 -72.648438 82.234375 -67.53125 59.484375 -67.53125 L 42.171875 -67.53125 L 42.171875 -30.953125 C 42.171875 -21.046875 42.859375 -14.222656 44.234375 -10.484375 C 45.617188 -6.742188 48.179688 -4.304688 51.921875 -3.171875 L 51.921875 0 Z M 42.171875 -71.1875 L 59 -71.1875 C 74.59375 -71.1875 86.492188 -75.25 94.703125 -83.375 C 102.910156 -91.5 107.015625 -102.710938 107.015625 -117.015625 C 107.015625 -125.785156 105.1875 -133.945312 101.53125 -141.5 C 97.875 -149.0625 92.0625 -155.195312 84.09375 -159.90625 C 76.132812 -164.625 65.570312 -166.984375 52.40625 -166.984375 C 50.78125 -166.984375 49.035156 -166.941406 47.171875 -166.859375 C 45.304688 -166.785156 43.640625 -166.664062 42.171875 -166.5 Z M 42.171875 -71.1875 "/></g></g><g style="fill:#eeba2b;fill-opacity:1;"><g transform="translate(136.338982, 194.376448)"><path style="stroke:none" d="M 69.484375 2.4375 C 56.640625 2.4375 45.097656 0.566406 34.859375 -3.171875 C 24.617188 -6.910156 16.65625 -10.8125 10.96875 -14.875 L 9.75 -48.75 L 12.4375 -49.25 C 15.6875 -40.789062 19.953125 -32.945312 25.234375 -25.71875 C 30.515625 -18.488281 37.21875 -12.71875 45.34375 -8.40625 C 53.46875 -4.101562 63.140625 -1.953125 74.359375 -1.953125 C 80.859375 -1.953125 86.867188 -3.289062 92.390625 -5.96875 C 97.921875 -8.65625 102.347656 -12.4375 105.671875 -17.3125 C 109.003906 -22.1875 110.671875 -27.875 110.671875 -34.375 C 110.671875 -40.550781 109.046875 -45.910156 105.796875 -50.453125 C 102.546875 -55.003906 98.320312 -58.988281 93.125 -62.40625 C 87.925781 -65.820312 82.441406 -68.785156 76.671875 -71.296875 C 70.898438 -73.816406 65.414062 -76.132812 60.21875 -78.25 C 50.625 -82.15625 42.289062 -86.097656 35.21875 -90.078125 C 28.15625 -94.054688 22.710938 -98.847656 18.890625 -104.453125 C 15.078125 -110.066406 13.171875 -117.179688 13.171875 -125.796875 C 13.171875 -135.378906 15.644531 -143.625 20.59375 -150.53125 C 25.550781 -157.4375 32.5 -162.800781 41.4375 -166.625 C 50.375 -170.445312 60.773438 -172.359375 72.640625 -172.359375 C 83.691406 -172.359375 93.195312 -171.140625 101.15625 -168.703125 C 109.125 -166.265625 115.46875 -163.742188 120.1875 -161.140625 L 121.15625 -132.859375 L 118.71875 -132.125 C 114.164062 -142.6875 107.539062 -151.378906 98.84375 -158.203125 C 90.15625 -165.035156 78.820312 -168.453125 64.84375 -168.453125 C 58.34375 -168.453125 52.289062 -167.191406 46.6875 -164.671875 C 41.082031 -162.148438 36.613281 -158.53125 33.28125 -153.8125 C 29.945312 -149.101562 28.28125 -143.257812 28.28125 -136.28125 C 28.28125 -130.582031 29.660156 -125.617188 32.421875 -121.390625 C 35.179688 -117.171875 38.835938 -113.515625 43.390625 -110.421875 C 47.941406 -107.335938 52.898438 -104.617188 58.265625 -102.265625 C 63.628906 -99.910156 68.910156 -97.675781 74.109375 -95.5625 C 83.210938 -91.988281 91.742188 -88.171875 99.703125 -84.109375 C 107.671875 -80.046875 114.128906 -75.085938 119.078125 -69.234375 C 124.035156 -63.378906 126.515625 -55.820312 126.515625 -46.5625 C 126.515625 -36.488281 123.753906 -27.753906 118.234375 -20.359375 C 112.710938 -12.960938 105.601562 -7.3125 96.90625 -3.40625 C 88.207031 0.488281 79.066406 2.4375 69.484375 2.4375 Z M 69.484375 2.4375 "/></g></g></g></g><g transform="matrix(1,0,0,1,14,105)"><g clip-path="url(#49f153544d)"><g style="fill:#151f28;fill-opacity:1;"><g transform="translate(32.957035, 91.278253)"><path style="stroke:none" d="M 20.859375 -54.9375 C 21.160156 -54.9375 21.425781 -54.832031 21.65625 -54.625 C 21.894531 -54.425781 22.03125 -54.203125 22.0625 -53.953125 C 22.082031 -53.453125 22.066406 -52.96875 22.015625 -52.5 C 21.984375 -52 21.914062 -51.53125 21.8125 -51.09375 C 21.78125 -50.894531 21.765625 -50.710938 21.765625 -50.546875 C 20.566406 -45.117188 19.066406 -39.816406 17.265625 -34.640625 C 17.097656 -34.046875 17.015625 -33.445312 17.015625 -32.84375 C 17.078125 -32.113281 16.941406 -31.429688 16.609375 -30.796875 C 15.859375 -29.671875 15.25 -28.492188 14.78125 -27.265625 C 11.707031 -18.515625 8.410156 -9.875 4.890625 -1.34375 C 1.929688 5.976562 -1.421875 13.128906 -5.171875 20.109375 C -6.191406 21.929688 -7.285156 23.742188 -8.453125 25.546875 C -9.023438 26.316406 -9.660156 27.035156 -10.359375 27.703125 C -10.992188 28.234375 -11.726562 28.382812 -12.5625 28.15625 C -13.414062 27.9375 -13.828125 27.382812 -13.796875 26.5 C -13.691406 25.4375 -13.457031 24.410156 -13.09375 23.421875 C -10.9375 17.429688 -8.546875 11.539062 -5.921875 5.75 C -1.097656 -5.21875 4.5 -15.753906 10.875 -25.859375 C 12.039062 -27.796875 12.941406 -29.804688 13.578125 -31.890625 C 14.710938 -35.296875 15.773438 -38.707031 16.765625 -42.125 C 17.765625 -45.550781 18.628906 -49.007812 19.359375 -52.5 C 19.460938 -53.050781 19.597656 -53.617188 19.765625 -54.203125 C 19.960938 -54.691406 20.328125 -54.9375 20.859375 -54.9375 Z M -9.0625 21.8125 C -5.96875 16.15625 -3.148438 10.394531 -0.609375 4.53125 C 1.929688 -1.332031 4.265625 -7.304688 6.390625 -13.390625 C 6.359375 -13.359375 6.328125 -13.304688 6.296875 -13.234375 C 6.191406 -13.171875 6.09375 -13.085938 6 -12.984375 C 5.757812 -12.566406 5.523438 -12.148438 5.296875 -11.734375 C 2.503906 -6.554688 -0.078125 -1.273438 -2.453125 4.109375 C -4.835938 9.492188 -7.109375 14.910156 -9.265625 20.359375 C -9.296875 20.429688 -9.3125 20.484375 -9.3125 20.515625 C -9.40625 20.679688 -9.453125 20.875 -9.453125 21.09375 C -9.453125 21.3125 -9.320312 21.550781 -9.0625 21.8125 Z M 120.34375 -56.1875 C 120.34375 -56.050781 120.273438 -55.914062 120.140625 -55.78125 C 120.015625 -55.644531 119.867188 -55.539062 119.703125 -55.46875 C 119.535156 -55.40625 119.382812 -55.410156 119.25 -55.484375 C 118.382812 -56.015625 117.46875 -56.367188 116.5 -56.546875 C 115.539062 -56.734375 114.578125 -56.878906 113.609375 -56.984375 C 112.878906 -57.015625 112.164062 -57.097656 111.46875 -57.234375 C 108.875 -57.628906 106.273438 -57.960938 103.671875 -58.234375 C 95.140625 -58.929688 86.582031 -59.304688 78 -59.359375 C 69.726562 -59.460938 61.453125 -59.285156 53.171875 -58.828125 C 43.835938 -58.359375 34.515625 -57.660156 25.203125 -56.734375 C 16.648438 -55.960938 8.117188 -55.035156 -0.390625 -53.953125 C -0.910156 -53.867188 -1.460938 -53.800781 -2.046875 -53.75 C -5.285156 -53.3125 -8.523438 -52.84375 -11.765625 -52.34375 C -15.015625 -51.84375 -18.253906 -51.226562 -21.484375 -50.5 C -21.742188 -50.425781 -22.007812 -50.359375 -22.28125 -50.296875 C -23.53125 -49.992188 -24.789062 -49.660156 -26.0625 -49.296875 C -27.332031 -48.929688 -28.550781 -48.445312 -29.71875 -47.84375 C -29.882812 -47.757812 -30.066406 -47.691406 -30.265625 -47.640625 C -30.515625 -47.609375 -30.753906 -47.617188 -30.984375 -47.671875 C -31.222656 -47.734375 -31.410156 -47.875 -31.546875 -48.09375 C -31.679688 -48.34375 -31.703125 -48.570312 -31.609375 -48.78125 C -31.515625 -48.988281 -31.34375 -49.160156 -31.09375 -49.296875 C -30.34375 -49.691406 -29.550781 -50.039062 -28.71875 -50.34375 C -26.644531 -51.039062 -24.554688 -51.628906 -22.453125 -52.109375 C -20.347656 -52.597656 -18.226562 -53.019531 -16.09375 -53.375 C -9.945312 -54.414062 -3.800781 -55.328125 2.34375 -56.109375 C 8.5 -56.890625 14.6875 -57.582031 20.90625 -58.1875 C 29.625 -59.070312 38.347656 -59.78125 47.078125 -60.3125 C 54.691406 -60.8125 62.304688 -61.097656 69.921875 -61.171875 C 75.515625 -61.234375 81.101562 -61.179688 86.6875 -61.015625 C 92.269531 -60.847656 97.847656 -60.515625 103.421875 -60.015625 C 108.515625 -59.492188 113.570312 -58.71875 118.59375 -57.6875 C 119.0625 -57.582031 119.492188 -57.414062 119.890625 -57.1875 C 120.222656 -56.945312 120.375 -56.613281 120.34375 -56.1875 Z M 120.34375 -56.1875 "/></g></g><g style="fill:#151f28;fill-opacity:1;"><g transform="translate(48.637654, 91.278253)"><path style="stroke:none" d="M 18.40625 -10.5625 C 18.132812 -10.320312 17.847656 -10.101562 17.546875 -9.90625 C 16.578125 -9.300781 15.703125 -8.820312 14.921875 -8.46875 C 14.148438 -8.125 13.234375 -7.769531 12.171875 -7.40625 C 10.597656 -6.9375 9.585938 -7.039062 9.140625 -7.71875 C 8.703125 -8.40625 8.632812 -9.351562 8.9375 -10.5625 C 9.351562 -12.28125 9.59375 -13.539062 9.65625 -14.34375 C 9.726562 -15.144531 9.46875 -15.421875 8.875 -15.171875 C 8.28125 -14.921875 7.195312 -14.09375 5.625 -12.6875 C 3.425781 -10.800781 1.550781 -8.640625 0 -6.203125 C -0.195312 -5.878906 -0.4375 -5.609375 -0.71875 -5.390625 C -1.007812 -5.179688 -1.367188 -5.078125 -1.796875 -5.078125 C -2.203125 -5.078125 -2.492188 -5.179688 -2.671875 -5.390625 C -2.859375 -5.609375 -2.867188 -5.894531 -2.703125 -6.25 C -1.804688 -8.21875 -0.890625 -10.171875 0.046875 -12.109375 C 1.648438 -15.460938 3.226562 -18.800781 4.78125 -22.125 C 5.945312 -24.613281 7.097656 -27.109375 8.234375 -29.609375 C 8.921875 -31.066406 9.597656 -32.53125 10.265625 -34 C 10.328125 -34.125 10.394531 -34.253906 10.46875 -34.390625 C 10.53125 -34.554688 10.601562 -34.722656 10.6875 -34.890625 C 10.769531 -35.054688 10.863281 -35.234375 10.96875 -35.421875 C 11.0625 -35.585938 11.234375 -35.722656 11.484375 -35.828125 C 11.734375 -35.941406 11.984375 -36.007812 12.234375 -36.03125 C 12.484375 -36.0625 12.675781 -36.050781 12.8125 -36 C 13 -35.863281 13.101562 -35.71875 13.125 -35.5625 C 13.15625 -35.414062 13.132812 -35.257812 13.0625 -35.09375 C 13.03125 -35.0625 13.015625 -35.007812 13.015625 -34.9375 C 12.710938 -34.039062 12.394531 -33.175781 12.0625 -32.34375 C 10.144531 -27.71875 8.050781 -23.160156 5.78125 -18.671875 C 5.613281 -18.367188 5.414062 -18.007812 5.1875 -17.59375 C 4.851562 -16.988281 4.539062 -16.394531 4.25 -15.8125 C 3.96875 -15.226562 3.875 -14.835938 3.96875 -14.640625 C 4.070312 -14.441406 4.523438 -14.59375 5.328125 -15.09375 C 5.566406 -15.257812 5.785156 -15.425781 5.984375 -15.59375 C 6.617188 -16.019531 7.242188 -16.421875 7.859375 -16.796875 C 8.410156 -17.160156 9.015625 -17.359375 9.671875 -17.390625 C 11.265625 -17.492188 12.160156 -16.773438 12.359375 -15.234375 C 12.429688 -14.609375 12.40625 -13.992188 12.28125 -13.390625 C 12.164062 -12.785156 12.023438 -12.191406 11.859375 -11.609375 C 11.828125 -11.441406 11.796875 -11.273438 11.765625 -11.109375 C 11.492188 -10.078125 11.566406 -9.484375 11.984375 -9.328125 C 12.398438 -9.179688 12.976562 -9.265625 13.71875 -9.578125 C 14.46875 -9.898438 15.226562 -10.289062 16 -10.75 C 16.53125 -11.019531 16.992188 -11.25 17.390625 -11.4375 C 17.796875 -11.632812 18.097656 -11.722656 18.296875 -11.703125 C 18.660156 -11.640625 18.828125 -11.488281 18.796875 -11.25 C 18.765625 -11.019531 18.632812 -10.789062 18.40625 -10.5625 Z M 18.40625 -10.5625 "/></g></g><g style="fill:#151f28;fill-opacity:1;"><g transform="translate(64.998043, 91.278253)"><path style="stroke:none" d="M 12.921875 -8.703125 C 12.046875 -7.835938 11.023438 -7.097656 9.859375 -6.484375 C 8.691406 -5.878906 7.710938 -5.484375 6.921875 -5.296875 C 6.140625 -5.109375 5.335938 -5 4.515625 -4.96875 C 3.179688 -4.90625 1.957031 -5.085938 0.84375 -5.515625 C -0.988281 -6.253906 -1.625 -7.664062 -1.0625 -9.75 C -0.53125 -11.539062 0.539062 -12.941406 2.15625 -13.953125 C 3.769531 -14.972656 5.4375 -15.46875 7.15625 -15.4375 C 7.15625 -15.4375 7.171875 -15.4375 7.203125 -15.4375 C 7.640625 -15.46875 8.054688 -15.4375 8.453125 -15.34375 C 9.117188 -15.101562 9.539062 -14.707031 9.71875 -14.15625 C 9.90625 -13.613281 9.785156 -13.015625 9.359375 -12.359375 C 8.390625 -10.890625 7.078125 -10.070312 5.421875 -9.90625 C 4.316406 -9.800781 3.25 -9.851562 2.21875 -10.0625 C 2.019531 -10.09375 1.84375 -10.039062 1.6875 -9.90625 C 1.539062 -9.769531 1.453125 -9.601562 1.421875 -9.40625 C 1.117188 -8.101562 1.519531 -7.269531 2.625 -6.90625 C 3.988281 -6.4375 5.40625 -6.4375 6.875 -6.90625 C 8.5625 -7.4375 10.164062 -8.4375 11.6875 -9.90625 C 13.21875 -11.375 14.097656 -12.054688 14.328125 -11.953125 C 14.566406 -11.859375 14.640625 -11.578125 14.546875 -11.109375 C 14.335938 -10.367188 13.796875 -9.566406 12.921875 -8.703125 Z M 3.265625 -12.359375 C 3.171875 -12.242188 3.101562 -12.125 3.0625 -12 C 3.03125 -11.875 3.082031 -11.757812 3.21875 -11.65625 C 3.75 -11.351562 4.320312 -11.242188 4.9375 -11.328125 C 5.5625 -11.410156 6.085938 -11.644531 6.515625 -12.03125 C 6.941406 -12.414062 7.128906 -12.882812 7.078125 -13.4375 C 7.023438 -13.632812 6.914062 -13.757812 6.75 -13.8125 C 6.582031 -13.863281 6.414062 -13.875 6.25 -13.84375 C 5.132812 -13.65625 4.140625 -13.160156 3.265625 -12.359375 Z M 3.265625 -12.359375 "/></g></g><g style="fill:#151f28;fill-opacity:1;"><g transform="translate(77.257152, 91.278253)"><path style="stroke:none" d=""/></g></g><g style="fill:#151f28;fill-opacity:1;"><g transform="translate(93.458922, 91.278253)"><path style="stroke:none" d="M 110.203125 -28.5625 C 110.566406 -28.488281 110.851562 -28.335938 111.0625 -28.109375 C 111.28125 -27.878906 111.328125 -27.660156 111.203125 -27.453125 C 111.066406 -27.253906 110.914062 -27.128906 110.75 -27.078125 C 110.582031 -27.035156 110.398438 -27.03125 110.203125 -27.0625 C 109.960938 -27.0625 109.710938 -27.078125 109.453125 -27.109375 C 105.859375 -27.210938 101.09375 -27.003906 95.15625 -26.484375 C 89.226562 -25.960938 84.453125 -25.453125 80.828125 -24.953125 C 78.035156 -24.585938 75.238281 -24.195312 72.4375 -23.78125 C 72.382812 -23.78125 72.300781 -23.753906 72.1875 -23.703125 C 71.03125 -23.535156 69.96875 -23.109375 69 -22.421875 C 65.445312 -20.003906 61.773438 -17.8125 57.984375 -15.84375 C 54.191406 -13.875 50.320312 -12.046875 46.375 -10.359375 C 39.976562 -7.535156 33.441406 -5.070312 26.765625 -2.96875 C 25.410156 -2.601562 24.414062 -1.769531 23.78125 -0.46875 C 20.8125 5.4375 17.71875 11.210938 14.5 16.859375 C 11.644531 21.890625 8.90625 26.984375 6.28125 32.140625 C 6.28125 32.171875 6.265625 32.203125 6.234375 32.234375 C 6.128906 32.503906 5.992188 32.722656 5.828125 32.890625 C 5.554688 33.117188 5.238281 33.203125 4.875 33.140625 C 4.675781 33.203125 4.476562 33.203125 4.28125 33.140625 C 3.875 32.972656 3.671875 32.671875 3.671875 32.234375 C 3.710938 31.503906 3.945312 30.820312 4.375 30.1875 C 4.40625 30.15625 4.421875 30.117188 4.421875 30.078125 C 7.078125 25.304688 9.691406 20.53125 12.265625 15.75 C 14.847656 10.976562 17.34375 6.132812 19.75 1.21875 C 19.9375 0.8125 20.128906 0.398438 20.328125 -0.015625 C 20.410156 -0.234375 20.492188 -0.457031 20.578125 -0.6875 C 20.347656 -0.738281 20.140625 -0.789062 19.953125 -0.84375 C 19.566406 -0.757812 19.195312 -0.648438 18.84375 -0.515625 C 18.695312 -0.484375 18.566406 -0.441406 18.453125 -0.390625 C 13.796875 0.941406 9.085938 2.078125 4.328125 3.015625 C 1.035156 3.609375 -2.269531 4.023438 -5.59375 4.265625 C -5.757812 4.296875 -5.910156 4.3125 -6.046875 4.3125 C -6.378906 4.34375 -6.710938 4.359375 -7.046875 4.359375 C -8.328125 4.359375 -9.578125 4.160156 -10.796875 3.765625 C -11.710938 3.429688 -12.257812 2.90625 -12.4375 2.1875 C -12.625 1.46875 -12.40625 0.691406 -11.78125 -0.140625 C -10.957031 -1.109375 -9.976562 -1.898438 -8.84375 -2.515625 C -6.269531 -4.117188 -3.570312 -5.429688 -0.75 -6.453125 C 6.789062 -9.316406 14.4375 -11.828125 22.1875 -13.984375 C 22.613281 -14.117188 23.0625 -14.238281 23.53125 -14.34375 C 24.53125 -14.539062 25.457031 -14.832031 26.3125 -15.21875 C 27.175781 -15.601562 27.828125 -16.273438 28.265625 -17.234375 C 29.898438 -20.992188 31.472656 -24.757812 32.984375 -28.53125 C 34.492188 -32.300781 35.898438 -36.132812 37.203125 -40.03125 C 37.203125 -40.0625 37.210938 -40.109375 37.234375 -40.171875 C 37.429688 -40.878906 37.695312 -41.539062 38.03125 -42.15625 C 38.164062 -42.375 38.34375 -42.523438 38.5625 -42.609375 C 38.78125 -42.691406 39.003906 -42.707031 39.234375 -42.65625 C 39.398438 -42.707031 39.582031 -42.707031 39.78125 -42.65625 C 40.28125 -42.539062 40.566406 -42.207031 40.640625 -41.65625 C 40.640625 -40.632812 40.453125 -39.640625 40.078125 -38.671875 C 40.078125 -38.640625 40.0625 -38.59375 40.03125 -38.53125 C 38.394531 -33.539062 36.566406 -28.640625 34.546875 -23.828125 C 34.015625 -22.492188 33.46875 -21.175781 32.90625 -19.875 C 32.695312 -19.40625 32.492188 -18.921875 32.296875 -18.421875 C 32.046875 -17.835938 31.941406 -17.4375 31.984375 -17.21875 C 32.023438 -17 32.175781 -16.894531 32.4375 -16.90625 C 32.707031 -16.925781 33.03125 -17.003906 33.40625 -17.140625 C 33.53125 -17.171875 33.660156 -17.203125 33.796875 -17.234375 C 35.265625 -17.609375 36.726562 -17.976562 38.1875 -18.34375 C 40.851562 -19 43.53125 -19.660156 46.21875 -20.328125 C 52.800781 -21.890625 59.4375 -23.222656 66.125 -24.328125 C 67.3125 -24.515625 68.351562 -24.972656 69.25 -25.703125 C 71.15625 -27.140625 73.035156 -28.828125 74.890625 -30.765625 C 76.742188 -32.710938 78.28125 -34.804688 79.5 -37.046875 C 80.71875 -39.296875 81.265625 -41.601562 81.140625 -43.96875 C 81.023438 -46.332031 79.941406 -48.675781 77.890625 -51 C 76.554688 -52.394531 75.039062 -53.554688 73.34375 -54.484375 C 69.78125 -56.410156 65.5 -57.820312 60.5 -58.71875 C 55.5 -59.613281 50.140625 -60.085938 44.421875 -60.140625 C 38.703125 -60.191406 32.972656 -59.898438 27.234375 -59.265625 C 21.492188 -58.640625 16.125 -57.757812 11.125 -56.625 C 6.125 -55.5 1.832031 -54.222656 -1.75 -52.796875 C -4.84375 -51.566406 -7.785156 -50.054688 -10.578125 -48.265625 C -11.710938 -47.566406 -12.78125 -46.800781 -13.78125 -45.96875 C -14.78125 -45.132812 -15.671875 -44.179688 -16.453125 -43.109375 C -16.753906 -42.640625 -17.15625 -42.390625 -17.65625 -42.359375 C -17.757812 -42.359375 -17.878906 -42.359375 -18.015625 -42.359375 C -18.046875 -42.359375 -18.078125 -42.359375 -18.109375 -42.359375 C -18.304688 -42.359375 -18.492188 -42.382812 -18.671875 -42.4375 C -18.859375 -42.488281 -19.003906 -42.597656 -19.109375 -42.765625 C -19.171875 -42.898438 -19.203125 -43.039062 -19.203125 -43.1875 C -19.203125 -43.332031 -19.1875 -43.457031 -19.15625 -43.5625 C -18.894531 -44.164062 -18.546875 -44.695312 -18.109375 -45.15625 C -17.671875 -45.625 -17.226562 -46.078125 -16.78125 -46.515625 C -15.5625 -47.535156 -14.296875 -48.460938 -12.984375 -49.296875 C -11.679688 -50.128906 -10.34375 -50.910156 -8.96875 -51.640625 C -5.445312 -53.515625 -0.945312 -55.195312 4.53125 -56.6875 C 10.019531 -58.1875 16.046875 -59.390625 22.609375 -60.296875 C 29.171875 -61.210938 35.785156 -61.710938 42.453125 -61.796875 C 49.117188 -61.878906 55.359375 -61.4375 61.171875 -60.46875 C 66.992188 -59.507812 71.953125 -57.894531 76.046875 -55.625 C 77.878906 -54.625 79.519531 -53.347656 80.96875 -51.796875 C 83.007812 -49.492188 84.164062 -47.21875 84.4375 -44.96875 C 84.71875 -42.726562 84.410156 -40.554688 83.515625 -38.453125 C 82.617188 -36.347656 81.378906 -34.335938 79.796875 -32.421875 C 78.222656 -30.515625 76.601562 -28.726562 74.9375 -27.0625 C 74.738281 -26.894531 74.539062 -26.6875 74.34375 -26.4375 C 74.144531 -26.1875 74.0625 -25.976562 74.09375 -25.8125 C 74.125 -25.644531 74.375 -25.59375 74.84375 -25.65625 C 80.414062 -26.5625 85.976562 -27.242188 91.53125 -27.703125 C 97.09375 -28.171875 102.679688 -28.488281 108.296875 -28.65625 C 108.460938 -28.65625 108.613281 -28.65625 108.75 -28.65625 L 108.796875 -28.65625 C 109.265625 -28.65625 109.734375 -28.625 110.203125 -28.5625 Z M 22.4375 -4.375 C 22.5625 -4.675781 22.789062 -5.109375 23.125 -5.671875 C 23.59375 -6.554688 24.082031 -7.539062 24.59375 -8.625 C 25.101562 -9.707031 25.472656 -10.65625 25.703125 -11.46875 C 25.941406 -12.28125 25.828125 -12.726562 25.359375 -12.8125 C 25.078125 -12.757812 24.800781 -12.691406 24.53125 -12.609375 C 24.46875 -12.609375 24.382812 -12.59375 24.28125 -12.5625 C 23.21875 -12.226562 22.148438 -11.910156 21.078125 -11.609375 C 18.523438 -10.867188 15.960938 -10.082031 13.390625 -9.25 C 13.273438 -9.21875 13.148438 -9.171875 13.015625 -9.109375 C 8.421875 -7.703125 3.894531 -6.085938 -0.5625 -4.265625 C -2.8125 -3.335938 -4.953125 -2.210938 -6.984375 -0.890625 C -7.753906 -0.453125 -8.390625 0.128906 -8.890625 0.859375 C -9.085938 1.160156 -9.144531 1.4375 -9.0625 1.6875 C -8.976562 1.9375 -8.769531 2.128906 -8.4375 2.265625 C -7.738281 2.492188 -7.023438 2.609375 -6.296875 2.609375 C -5.660156 2.609375 -5.023438 2.578125 -4.390625 2.515625 C -4.367188 2.515625 -4.359375 2.515625 -4.359375 2.515625 C -1.054688 2.179688 2.1875 1.644531 5.375 0.90625 C 10.4375 -0.207031 15.4375 -1.515625 20.375 -3.015625 C 20.445312 -3.054688 20.5 -3.078125 20.53125 -3.078125 C 20.925781 -3.171875 21.289062 -3.304688 21.625 -3.484375 C 21.957031 -3.671875 22.226562 -3.96875 22.4375 -4.375 Z M 26.671875 -5.265625 C 29.671875 -6.035156 33.742188 -7.472656 38.890625 -9.578125 C 44.046875 -11.679688 49 -13.90625 53.75 -16.25 C 58.507812 -18.601562 61.75 -20.546875 63.46875 -22.078125 C 63.238281 -22.078125 63.039062 -22.078125 62.875 -22.078125 C 62.800781 -22.078125 62.75 -22.078125 62.71875 -22.078125 C 52.28125 -20.003906 41.945312 -17.539062 31.71875 -14.6875 C 30.800781 -14.425781 30.179688 -13.882812 29.859375 -13.0625 C 29.234375 -11.726562 28.617188 -10.410156 28.015625 -9.109375 C 27.546875 -8.140625 27.078125 -7.160156 26.609375 -6.171875 C 26.546875 -6.035156 26.503906 -5.882812 26.484375 -5.71875 C 26.472656 -5.550781 26.535156 -5.398438 26.671875 -5.265625 Z M 26.671875 -5.265625 "/></g></g><g style="fill:#151f28;fill-opacity:1;"><g transform="translate(156.066246, 91.278253)"><path style="stroke:none" d="M 10.875 -13.921875 C 10.738281 -12.878906 10.25 -12.195312 9.40625 -11.875 C 8.5625 -11.5625 8.285156 -11.976562 8.578125 -13.125 C 8.867188 -14.269531 8.347656 -14.554688 7.015625 -13.984375 C 5.691406 -13.421875 4.597656 -12.710938 3.734375 -11.859375 C 2.410156 -10.492188 1.234375 -9.023438 0.203125 -7.453125 C 0.0976562 -7.316406 0.015625 -7.207031 -0.046875 -7.125 C -0.347656 -6.675781 -0.648438 -6.257812 -0.953125 -5.875 C -1.148438 -5.601562 -1.378906 -5.429688 -1.640625 -5.359375 C -1.910156 -5.296875 -2.179688 -5.285156 -2.453125 -5.328125 C -2.703125 -5.359375 -2.894531 -5.457031 -3.03125 -5.625 C -3.164062 -5.789062 -3.179688 -5.984375 -3.078125 -6.203125 C -2.910156 -6.617188 -2.71875 -7.035156 -2.5 -7.453125 C -1.132812 -9.984375 0.25 -12.515625 1.65625 -15.046875 C 1.6875 -15.078125 1.703125 -15.109375 1.703125 -15.140625 C 1.898438 -15.535156 2.132812 -15.898438 2.40625 -16.234375 C 2.707031 -16.566406 3.050781 -16.703125 3.4375 -16.640625 C 3.832031 -16.578125 4.097656 -16.34375 4.234375 -15.9375 C 4.398438 -15.40625 4.539062 -15.101562 4.65625 -15.03125 C 4.78125 -14.96875 5.054688 -15.019531 5.484375 -15.1875 C 6.390625 -15.519531 7.269531 -15.753906 8.125 -15.890625 C 8.988281 -16.023438 9.695312 -15.988281 10.25 -15.78125 C 10.800781 -15.582031 11.007812 -14.960938 10.875 -13.921875 Z M 10.875 -13.921875 "/></g></g><g style="fill:#151f28;fill-opacity:1;"><g transform="translate(166.467321, 91.278253)"><path style="stroke:none" d="M 12.921875 -8.703125 C 12.046875 -7.835938 11.023438 -7.097656 9.859375 -6.484375 C 8.691406 -5.878906 7.710938 -5.484375 6.921875 -5.296875 C 6.140625 -5.109375 5.335938 -5 4.515625 -4.96875 C 3.179688 -4.90625 1.957031 -5.085938 0.84375 -5.515625 C -0.988281 -6.253906 -1.625 -7.664062 -1.0625 -9.75 C -0.53125 -11.539062 0.539062 -12.941406 2.15625 -13.953125 C 3.769531 -14.972656 5.4375 -15.46875 7.15625 -15.4375 C 7.15625 -15.4375 7.171875 -15.4375 7.203125 -15.4375 C 7.640625 -15.46875 8.054688 -15.4375 8.453125 -15.34375 C 9.117188 -15.101562 9.539062 -14.707031 9.71875 -14.15625 C 9.90625 -13.613281 9.785156 -13.015625 9.359375 -12.359375 C 8.390625 -10.890625 7.078125 -10.070312 5.421875 -9.90625 C 4.316406 -9.800781 3.25 -9.851562 2.21875 -10.0625 C 2.019531 -10.09375 1.84375 -10.039062 1.6875 -9.90625 C 1.539062 -9.769531 1.453125 -9.601562 1.421875 -9.40625 C 1.117188 -8.101562 1.519531 -7.269531 2.625 -6.90625 C 3.988281 -6.4375 5.40625 -6.4375 6.875 -6.90625 C 8.5625 -7.4375 10.164062 -8.4375 11.6875 -9.90625 C 13.21875 -11.375 14.097656 -12.054688 14.328125 -11.953125 C 14.566406 -11.859375 14.640625 -11.578125 14.546875 -11.109375 C 14.335938 -10.367188 13.796875 -9.566406 12.921875 -8.703125 Z M 3.265625 -12.359375 C 3.171875 -12.242188 3.101562 -12.125 3.0625 -12 C 3.03125 -11.875 3.082031 -11.757812 3.21875 -11.65625 C 3.75 -11.351562 4.320312 -11.242188 4.9375 -11.328125 C 5.5625 -11.410156 6.085938 -11.644531 6.515625 -12.03125 C 6.941406 -12.414062 7.128906 -12.882812 7.078125 -13.4375 C 7.023438 -13.632812 6.914062 -13.757812 6.75 -13.8125 C 6.582031 -13.863281 6.414062 -13.875 6.25 -13.84375 C 5.132812 -13.65625 4.140625 -13.160156 3.265625 -12.359375 Z M 3.265625 -12.359375 "/></g></g><g style="fill:#151f28;fill-opacity:1;"><g transform="translate(178.726431, 91.278253)"><path style="stroke:none" d="M 14.171875 -10.953125 C 12.140625 -8.554688 10.148438 -6.789062 8.203125 -5.65625 C 6.265625 -4.53125 4.1875 -4.160156 1.96875 -4.546875 C -0.238281 -4.929688 -1.144531 -6.414062 -0.75 -9 C -0.476562 -10.300781 -0.109375 -11.570312 0.359375 -12.8125 C 1.523438 -15.695312 2.707031 -18.566406 3.90625 -21.421875 C 4.289062 -22.453125 4.703125 -23.488281 5.140625 -24.53125 C 5.242188 -24.75 5.34375 -24.972656 5.4375 -25.203125 C 5.601562 -25.578125 5.769531 -25.960938 5.9375 -26.359375 C 6.175781 -27.023438 5.910156 -27.375 5.140625 -27.40625 C 4.703125 -27.40625 4.273438 -27.40625 3.859375 -27.40625 C 3.660156 -27.40625 3.441406 -27.40625 3.203125 -27.40625 C 2.972656 -27.375 2.738281 -27.34375 2.5 -27.3125 C 2.101562 -27.28125 1.710938 -27.265625 1.328125 -27.265625 C 0.941406 -27.265625 0.582031 -27.363281 0.25 -27.5625 C 0.15625 -27.59375 0.0820312 -27.648438 0.03125 -27.734375 C -0.0195312 -27.816406 -0.046875 -27.910156 -0.046875 -28.015625 C -0.015625 -28.078125 0.03125 -28.148438 0.09375 -28.234375 C 0.164062 -28.316406 0.253906 -28.375 0.359375 -28.40625 C 0.691406 -28.539062 1.039062 -28.640625 1.40625 -28.703125 C 2.34375 -28.742188 3.269531 -28.78125 4.1875 -28.8125 C 4.550781 -28.8125 4.867188 -28.8125 5.140625 -28.8125 C 5.742188 -28.8125 6.191406 -28.832031 6.484375 -28.875 C 6.785156 -28.925781 7.023438 -29.085938 7.203125 -29.359375 C 7.390625 -29.628906 7.601562 -30.039062 7.84375 -30.59375 C 7.976562 -30.894531 8.144531 -31.226562 8.34375 -31.59375 C 8.84375 -32.65625 9.34375 -33.738281 9.84375 -34.84375 C 10.0625 -35.34375 10.296875 -35.828125 10.546875 -36.296875 C 10.734375 -36.765625 11.039062 -37.125 11.46875 -37.375 C 11.875 -37.570312 12.226562 -37.554688 12.53125 -37.328125 C 12.625 -37.265625 12.695312 -37.164062 12.75 -37.03125 C 12.800781 -36.894531 12.828125 -36.773438 12.828125 -36.671875 C 12.828125 -36.085938 12.675781 -35.507812 12.375 -34.9375 C 12.3125 -34.8125 12.242188 -34.664062 12.171875 -34.5 C 11.972656 -33.957031 11.757812 -33.40625 11.53125 -32.84375 C 11.09375 -31.8125 10.679688 -30.757812 10.296875 -29.6875 C 10.179688 -29.5 10.171875 -29.328125 10.265625 -29.171875 C 10.367188 -29.023438 10.519531 -28.953125 10.71875 -28.953125 C 11.789062 -28.921875 12.84375 -28.90625 13.875 -28.90625 C 14.40625 -28.90625 14.929688 -28.90625 15.453125 -28.90625 C 17.117188 -28.875 17.785156 -28.640625 17.453125 -28.203125 C 17.222656 -27.941406 16.972656 -27.789062 16.703125 -27.75 C 16.441406 -27.71875 16.175781 -27.722656 15.90625 -27.765625 C 15.738281 -27.765625 15.570312 -27.765625 15.40625 -27.765625 C 13.71875 -27.660156 12.039062 -27.59375 10.375 -27.5625 C 9.601562 -27.5625 9.09375 -27.210938 8.84375 -26.515625 C 8.570312 -25.847656 8.304688 -25.1875 8.046875 -24.53125 C 7.671875 -23.65625 7.316406 -22.800781 6.984375 -21.96875 C 6.648438 -21.175781 6.316406 -20.378906 5.984375 -19.578125 C 5.117188 -17.554688 4.285156 -15.523438 3.484375 -13.484375 C 2.992188 -12.148438 2.601562 -10.789062 2.3125 -9.40625 C 1.675781 -6.882812 2.648438 -5.914062 5.234375 -6.5 C 7.773438 -7.101562 10.4375 -8.929688 13.21875 -11.984375 C 14.425781 -12.753906 14.742188 -12.410156 14.171875 -10.953125 Z M 14.171875 -10.953125 "/></g></g><g style="fill:#151f28;fill-opacity:1;"><g transform="translate(190.668315, 91.278253)"><path style="stroke:none" d="M 14.171875 -10.953125 C 12.140625 -8.554688 10.148438 -6.789062 8.203125 -5.65625 C 6.265625 -4.53125 4.1875 -4.160156 1.96875 -4.546875 C -0.238281 -4.929688 -1.144531 -6.414062 -0.75 -9 C -0.476562 -10.300781 -0.109375 -11.570312 0.359375 -12.8125 C 1.523438 -15.695312 2.707031 -18.566406 3.90625 -21.421875 C 4.289062 -22.453125 4.703125 -23.488281 5.140625 -24.53125 C 5.242188 -24.75 5.34375 -24.972656 5.4375 -25.203125 C 5.601562 -25.578125 5.769531 -25.960938 5.9375 -26.359375 C 6.175781 -27.023438 5.910156 -27.375 5.140625 -27.40625 C 4.703125 -27.40625 4.273438 -27.40625 3.859375 -27.40625 C 3.660156 -27.40625 3.441406 -27.40625 3.203125 -27.40625 C 2.972656 -27.375 2.738281 -27.34375 2.5 -27.3125 C 2.101562 -27.28125 1.710938 -27.265625 1.328125 -27.265625 C 0.941406 -27.265625 0.582031 -27.363281 0.25 -27.5625 C 0.15625 -27.59375 0.0820312 -27.648438 0.03125 -27.734375 C -0.0195312 -27.816406 -0.046875 -27.910156 -0.046875 -28.015625 C -0.015625 -28.078125 0.03125 -28.148438 0.09375 -28.234375 C 0.164062 -28.316406 0.253906 -28.375 0.359375 -28.40625 C 0.691406 -28.539062 1.039062 -28.640625 1.40625 -28.703125 C 2.34375 -28.742188 3.269531 -28.78125 4.1875 -28.8125 C 4.550781 -28.8125 4.867188 -28.8125 5.140625 -28.8125 C 5.742188 -28.8125 6.191406 -28.832031 6.484375 -28.875 C 6.785156 -28.925781 7.023438 -29.085938 7.203125 -29.359375 C 7.390625 -29.628906 7.601562 -30.039062 7.84375 -30.59375 C 7.976562 -30.894531 8.144531 -31.226562 8.34375 -31.59375 C 8.84375 -32.65625 9.34375 -33.738281 9.84375 -34.84375 C 10.0625 -35.34375 10.296875 -35.828125 10.546875 -36.296875 C 10.734375 -36.765625 11.039062 -37.125 11.46875 -37.375 C 11.875 -37.570312 12.226562 -37.554688 12.53125 -37.328125 C 12.625 -37.265625 12.695312 -37.164062 12.75 -37.03125 C 12.800781 -36.894531 12.828125 -36.773438 12.828125 -36.671875 C 12.828125 -36.085938 12.675781 -35.507812 12.375 -34.9375 C 12.3125 -34.8125 12.242188 -34.664062 12.171875 -34.5 C 11.972656 -33.957031 11.757812 -33.40625 11.53125 -32.84375 C 11.09375 -31.8125 10.679688 -30.757812 10.296875 -29.6875 C 10.179688 -29.5 10.171875 -29.328125 10.265625 -29.171875 C 10.367188 -29.023438 10.519531 -28.953125 10.71875 -28.953125 C 11.789062 -28.921875 12.84375 -28.90625 13.875 -28.90625 C 14.40625 -28.90625 14.929688 -28.90625 15.453125 -28.90625 C 17.117188 -28.875 17.785156 -28.640625 17.453125 -28.203125 C 17.222656 -27.941406 16.972656 -27.789062 16.703125 -27.75 C 16.441406 -27.71875 16.175781 -27.722656 15.90625 -27.765625 C 15.738281 -27.765625 15.570312 -27.765625 15.40625 -27.765625 C 13.71875 -27.660156 12.039062 -27.59375 10.375 -27.5625 C 9.601562 -27.5625 9.09375 -27.210938 8.84375 -26.515625 C 8.570312 -25.847656 8.304688 -25.1875 8.046875 -24.53125 C 7.671875 -23.65625 7.316406 -22.800781 6.984375 -21.96875 C 6.648438 -21.175781 6.316406 -20.378906 5.984375 -19.578125 C 5.117188 -17.554688 4.285156 -15.523438 3.484375 -13.484375 C 2.992188 -12.148438 2.601562 -10.789062 2.3125 -9.40625 C 1.675781 -6.882812 2.648438 -5.914062 5.234375 -6.5 C 7.773438 -7.101562 10.4375 -8.929688 13.21875 -11.984375 C 14.425781 -12.753906 14.742188 -12.410156 14.171875 -10.953125 Z M 14.171875 -10.953125 "/></g></g><g style="fill:#151f28;fill-opacity:1;"><g transform="translate(202.6102, 91.278253)"><path style="stroke:none" d="M 17.796875 -11.828125 C 17.992188 -11.441406 17.664062 -10.847656 16.8125 -10.046875 C 15.96875 -9.253906 14.484375 -8.289062 12.359375 -7.15625 C 11.554688 -6.832031 10.972656 -6.570312 10.609375 -6.375 C 10.242188 -6.175781 9.976562 -5.925781 9.8125 -5.625 C 9.644531 -5.320312 9.460938 -4.851562 9.265625 -4.21875 C 9.097656 -3.75 8.878906 -3.117188 8.609375 -2.328125 C 8.242188 -1.367188 7.882812 -0.375 7.53125 0.65625 C 6.863281 2.757812 6.070312 4.832031 5.15625 6.875 C 4.238281 8.925781 3.054688 10.710938 1.609375 12.234375 C 0.160156 13.765625 -1.703125 14.78125 -3.984375 15.28125 C -6.285156 15.71875 -8.507812 15.785156 -10.65625 15.484375 C -12.800781 15.179688 -14.898438 14.582031 -16.953125 13.6875 C -17.785156 13.3125 -18.535156 12.8125 -19.203125 12.1875 C -20.304688 11.0625 -20.390625 9.796875 -19.453125 8.390625 C -18.953125 7.691406 -18.367188 7.0625 -17.703125 6.5 C -16.367188 5.425781 -14.976562 4.445312 -13.53125 3.5625 C -10.820312 1.925781 -8.054688 0.429688 -5.234375 -0.921875 C -2.410156 -2.285156 0.441406 -3.601562 3.328125 -4.875 C 3.523438 -4.96875 3.742188 -5.066406 3.984375 -5.171875 C 4.773438 -5.535156 5.585938 -5.894531 6.421875 -6.25 C 6.992188 -6.46875 7.378906 -6.851562 7.578125 -7.40625 C 7.628906 -7.601562 7.640625 -7.785156 7.609375 -7.953125 C 7.585938 -8.054688 7.535156 -8.113281 7.453125 -8.125 C 7.367188 -8.144531 7.269531 -8.125 7.15625 -8.0625 C 6.875 -7.894531 6.582031 -7.707031 6.28125 -7.5 C 6.113281 -7.40625 5.929688 -7.289062 5.734375 -7.15625 C 4.691406 -6.550781 3.613281 -6.289062 2.5 -6.375 C 0.726562 -6.375 -0.171875 -7.164062 -0.203125 -8.75 C -0.234375 -10.050781 -0.015625 -11.28125 0.453125 -12.4375 C 0.929688 -13.601562 1.613281 -14.703125 2.5 -15.734375 C 2.582031 -15.835938 2.707031 -15.921875 2.875 -15.984375 C 3.039062 -16.054688 3.207031 -16.109375 3.375 -16.140625 C 3.40625 -16.140625 3.441406 -16.15625 3.484375 -16.1875 C 3.816406 -16.21875 4.070312 -16.132812 4.25 -15.9375 C 4.4375 -15.738281 4.476562 -15.488281 4.375 -15.1875 C 4.175781 -14.757812 3.976562 -14.328125 3.78125 -13.890625 C 3.613281 -13.554688 3.445312 -13.222656 3.28125 -12.890625 C 2.625 -11.597656 2.320312 -10.238281 2.375 -8.8125 C 2.40625 -8.507812 2.535156 -8.289062 2.765625 -8.15625 C 3.003906 -8.019531 3.273438 -8.019531 3.578125 -8.15625 C 4.472656 -8.519531 5.253906 -9.035156 5.921875 -9.703125 C 7.710938 -11.335938 9.191406 -13.21875 10.359375 -15.34375 C 10.523438 -15.644531 10.71875 -15.898438 10.9375 -16.109375 C 11.15625 -16.328125 11.445312 -16.453125 11.8125 -16.484375 C 12.28125 -16.523438 12.640625 -16.421875 12.890625 -16.171875 C 13.140625 -15.921875 13.207031 -15.59375 13.09375 -15.1875 C 12.675781 -13.820312 12.234375 -12.476562 11.765625 -11.15625 C 11.734375 -11.050781 11.695312 -10.953125 11.65625 -10.859375 C 11.53125 -10.554688 11.414062 -10.238281 11.3125 -9.90625 C 11.207031 -9.570312 11.15625 -9.28125 11.15625 -9.03125 C 11.15625 -8.78125 11.257812 -8.65625 11.46875 -8.65625 C 12.300781 -8.820312 13.515625 -9.488281 15.109375 -10.65625 C 16.703125 -11.820312 17.597656 -12.210938 17.796875 -11.828125 Z M 5.921875 -2.71875 C 5.921875 -2.789062 5.941406 -2.859375 5.984375 -2.921875 C 6.078125 -3.085938 6.128906 -3.269531 6.140625 -3.46875 C 6.160156 -3.664062 6.109375 -3.867188 5.984375 -4.078125 C 5.878906 -4.078125 5.796875 -4.078125 5.734375 -4.078125 C 5.523438 -4.035156 5.335938 -3.984375 5.171875 -3.921875 C 4.835938 -3.785156 4.503906 -3.632812 4.171875 -3.46875 C 1.515625 -2.238281 -1.140625 -0.976562 -3.796875 0.3125 C -6.460938 1.613281 -9.070312 3 -11.625 4.46875 C -13.1875 5.351562 -14.65625 6.394531 -16.03125 7.59375 C -17.144531 8.59375 -17.675781 9.460938 -17.625 10.203125 C -17.582031 10.953125 -16.925781 11.628906 -15.65625 12.234375 C -12.769531 13.734375 -9.664062 14.347656 -6.34375 14.078125 C -4.082031 13.847656 -2.242188 12.992188 -0.828125 11.515625 C 0.585938 10.035156 1.742188 8.265625 2.640625 6.203125 C 3.535156 4.140625 4.316406 2.078125 4.984375 0.015625 C 5.273438 -0.941406 5.585938 -1.851562 5.921875 -2.71875 Z M 5.921875 -2.71875 "/></g></g><g style="fill:#151f28;fill-opacity:1;"><g transform="translate(218.177518, 91.278253)"><path style="stroke:none" d=""/></g></g><g clip-rule="nonzero" clip-path="url(#9c7be73b93)"><g style="fill:#151f28;fill-opacity:1;"><g transform="translate(234.379288, 91.278253)"><path style="stroke:none" d="M 117.09375 -65.421875 C 117.488281 -65.085938 117.84375 -64.710938 118.15625 -64.296875 C 118.476562 -63.878906 118.6875 -63.382812 118.78125 -62.8125 C 118.882812 -62.175781 118.65625 -61.691406 118.09375 -61.359375 C 117.757812 -61.191406 117.429688 -61.164062 117.109375 -61.28125 C 116.796875 -61.40625 116.570312 -61.648438 116.4375 -62.015625 C 116.070312 -63.015625 115.523438 -63.804688 114.796875 -64.390625 C 114.066406 -64.972656 113.269531 -65.484375 112.40625 -65.921875 C 110.5 -66.910156 108.53125 -67.71875 106.5 -68.34375 C 104.476562 -68.976562 102.441406 -69.53125 100.390625 -70 C 96.960938 -70.71875 92.394531 -71.1875 86.6875 -71.40625 C 80.988281 -71.625 74.640625 -71.539062 67.640625 -71.15625 C 60.640625 -70.769531 53.472656 -70.019531 46.140625 -68.90625 C 38.816406 -67.800781 31.800781 -66.273438 25.09375 -64.328125 C 18.394531 -62.390625 12.507812 -59.972656 7.4375 -57.078125 C 2.375 -54.191406 -1.40625 -50.785156 -3.90625 -46.859375 C -5.988281 -43.441406 -6.398438 -39.835938 -5.140625 -36.046875 C -4.234375 -33.441406 -2.9375 -31.078125 -1.25 -28.953125 C 1.269531 -25.753906 4.066406 -22.828125 7.140625 -20.171875 C 9.722656 -17.816406 12.328125 -15.457031 14.953125 -13.09375 C 17.515625 -10.832031 20.078125 -8.535156 22.640625 -6.203125 C 25.492188 -3.578125 28.304688 -0.921875 31.078125 1.765625 C 31.335938 2.023438 31.601562 2.273438 31.875 2.515625 C 33.363281 3.898438 34.675781 5.441406 35.8125 7.140625 C 36.976562 9.078125 37.203125 10.578125 36.484375 11.640625 C 35.765625 12.703125 34.398438 13.421875 32.390625 13.796875 C 30.378906 14.179688 28.039062 14.300781 25.375 14.15625 C 22.71875 14.007812 20.039062 13.675781 17.34375 13.15625 C 14.65625 12.632812 12.265625 12.007812 10.171875 11.28125 C 8.078125 10.5625 6.597656 9.816406 5.734375 9.046875 C 4.015625 7.441406 3.898438 5.75 5.390625 3.96875 C 7.003906 2.132812 8.976562 0.804688 11.3125 -0.015625 C 14.675781 -1.316406 18.082031 -1.425781 21.53125 -0.34375 C 22.195312 -0.101562 22.832031 0.210938 23.4375 0.609375 C 23.5 0.640625 23.550781 0.675781 23.59375 0.71875 C 23.757812 0.8125 23.875 0.945312 23.9375 1.125 C 24 1.3125 23.96875 1.507812 23.84375 1.71875 C 23.570312 2.050781 23.238281 2.148438 22.84375 2.015625 C 22.46875 1.878906 22.113281 1.710938 21.78125 1.515625 C 19.394531 0.328125 16.9375 0.078125 14.40625 0.765625 C 11.882812 1.460938 9.757812 2.835938 8.03125 4.890625 C 7.269531 5.890625 7.226562 6.765625 7.90625 7.515625 C 8.59375 8.265625 9.632812 8.898438 11.03125 9.421875 C 12.425781 9.941406 13.828125 10.347656 15.234375 10.640625 C 16.648438 10.929688 17.707031 11.132812 18.40625 11.25 C 18.539062 11.25 18.640625 11.257812 18.703125 11.28125 C 18.835938 11.28125 19.003906 11.296875 19.203125 11.328125 C 20.085938 11.523438 21.304688 11.734375 22.859375 11.953125 C 24.410156 12.171875 26.007812 12.320312 27.65625 12.40625 C 29.300781 12.488281 30.710938 12.378906 31.890625 12.078125 C 33.066406 11.773438 33.726562 11.191406 33.875 10.328125 C 34.03125 9.472656 33.378906 8.195312 31.921875 6.5 C 30.359375 4.707031 28.707031 2.960938 26.96875 1.265625 C 22.644531 -2.921875 18.210938 -6.976562 13.671875 -10.90625 C 12.035156 -12.363281 10.398438 -13.828125 8.765625 -15.296875 C 6.046875 -17.742188 3.375 -20.253906 0.75 -22.828125 C -1.6875 -25.179688 -3.832031 -27.769531 -5.6875 -30.59375 C -7.019531 -32.65625 -7.953125 -34.867188 -8.484375 -37.234375 C -9.273438 -41.117188 -8.554688 -44.710938 -6.328125 -48.015625 C -3.878906 -51.703125 -0.328125 -54.960938 4.328125 -57.796875 C 8.984375 -60.640625 14.378906 -63.066406 20.515625 -65.078125 C 26.648438 -67.085938 33.1875 -68.710938 40.125 -69.953125 C 47.0625 -71.203125 54.066406 -72.085938 61.140625 -72.609375 C 68.222656 -73.128906 75.007812 -73.304688 81.5 -73.140625 C 88 -72.972656 93.882812 -72.484375 99.15625 -71.671875 C 104.425781 -70.859375 108.742188 -69.734375 112.109375 -68.296875 C 113.890625 -67.597656 115.550781 -66.640625 117.09375 -65.421875 Z M 117.09375 -65.421875 "/></g></g></g><g style="fill:#151f28;fill-opacity:1;"><g transform="translate(266.850192, 91.278253)"><path style="stroke:none" d="M 18.40625 -10.5625 C 18.132812 -10.320312 17.847656 -10.101562 17.546875 -9.90625 C 16.578125 -9.300781 15.703125 -8.820312 14.921875 -8.46875 C 14.148438 -8.125 13.234375 -7.769531 12.171875 -7.40625 C 10.597656 -6.9375 9.585938 -7.039062 9.140625 -7.71875 C 8.703125 -8.40625 8.632812 -9.351562 8.9375 -10.5625 C 9.351562 -12.28125 9.59375 -13.539062 9.65625 -14.34375 C 9.726562 -15.144531 9.46875 -15.421875 8.875 -15.171875 C 8.28125 -14.921875 7.195312 -14.09375 5.625 -12.6875 C 3.425781 -10.800781 1.550781 -8.640625 0 -6.203125 C -0.195312 -5.878906 -0.4375 -5.609375 -0.71875 -5.390625 C -1.007812 -5.179688 -1.367188 -5.078125 -1.796875 -5.078125 C -2.203125 -5.078125 -2.492188 -5.179688 -2.671875 -5.390625 C -2.859375 -5.609375 -2.867188 -5.894531 -2.703125 -6.25 C -1.804688 -8.21875 -0.890625 -10.171875 0.046875 -12.109375 C 1.648438 -15.460938 3.226562 -18.800781 4.78125 -22.125 C 5.945312 -24.613281 7.097656 -27.109375 8.234375 -29.609375 C 8.921875 -31.066406 9.597656 -32.53125 10.265625 -34 C 10.328125 -34.125 10.394531 -34.253906 10.46875 -34.390625 C 10.53125 -34.554688 10.601562 -34.722656 10.6875 -34.890625 C 10.769531 -35.054688 10.863281 -35.234375 10.96875 -35.421875 C 11.0625 -35.585938 11.234375 -35.722656 11.484375 -35.828125 C 11.734375 -35.941406 11.984375 -36.007812 12.234375 -36.03125 C 12.484375 -36.0625 12.675781 -36.050781 12.8125 -36 C 13 -35.863281 13.101562 -35.71875 13.125 -35.5625 C 13.15625 -35.414062 13.132812 -35.257812 13.0625 -35.09375 C 13.03125 -35.0625 13.015625 -35.007812 13.015625 -34.9375 C 12.710938 -34.039062 12.394531 -33.175781 12.0625 -32.34375 C 10.144531 -27.71875 8.050781 -23.160156 5.78125 -18.671875 C 5.613281 -18.367188 5.414062 -18.007812 5.1875 -17.59375 C 4.851562 -16.988281 4.539062 -16.394531 4.25 -15.8125 C 3.96875 -15.226562 3.875 -14.835938 3.96875 -14.640625 C 4.070312 -14.441406 4.523438 -14.59375 5.328125 -15.09375 C 5.566406 -15.257812 5.785156 -15.425781 5.984375 -15.59375 C 6.617188 -16.019531 7.242188 -16.421875 7.859375 -16.796875 C 8.410156 -17.160156 9.015625 -17.359375 9.671875 -17.390625 C 11.265625 -17.492188 12.160156 -16.773438 12.359375 -15.234375 C 12.429688 -14.609375 12.40625 -13.992188 12.28125 -13.390625 C 12.164062 -12.785156 12.023438 -12.191406 11.859375 -11.609375 C 11.828125 -11.441406 11.796875 -11.273438 11.765625 -11.109375 C 11.492188 -10.078125 11.566406 -9.484375 11.984375 -9.328125 C 12.398438 -9.179688 12.976562 -9.265625 13.71875 -9.578125 C 14.46875 -9.898438 15.226562 -10.289062 16 -10.75 C 16.53125 -11.019531 16.992188 -11.25 17.390625 -11.4375 C 17.796875 -11.632812 18.097656 -11.722656 18.296875 -11.703125 C 18.660156 -11.640625 18.828125 -11.488281 18.796875 -11.25 C 18.765625 -11.019531 18.632812 -10.789062 18.40625 -10.5625 Z M 18.40625 -10.5625 "/></g></g><g style="fill:#151f28;fill-opacity:1;"><g transform="translate(283.210567, 91.278253)"><path style="stroke:none" d="M 3.609375 -5.375 L 3.53125 -5.375 C 1.34375 -5.40625 -0.0976562 -5.890625 -0.796875 -6.828125 C -1.492188 -7.773438 -1.460938 -9.035156 -0.703125 -10.609375 C -0.0664062 -11.804688 0.734375 -12.847656 1.703125 -13.734375 C 2.035156 -14.035156 2.375 -14.273438 2.71875 -14.453125 C 3.0625 -14.640625 3.457031 -14.734375 3.90625 -14.734375 C 4.15625 -14.773438 4.445312 -14.726562 4.78125 -14.59375 C 4.882812 -14.5625 4.988281 -14.523438 5.09375 -14.484375 C 5.351562 -14.523438 5.601562 -14.609375 5.84375 -14.734375 C 5.90625 -14.773438 5.988281 -14.8125 6.09375 -14.84375 C 6.59375 -15.039062 7.125 -15.125 7.6875 -15.09375 C 7.914062 -15.09375 8.148438 -15.09375 8.390625 -15.09375 C 9.273438 -14.957031 9.941406 -14.582031 10.390625 -13.96875 C 10.847656 -13.363281 11.007812 -12.617188 10.875 -11.734375 C 10.800781 -11.210938 10.632812 -10.71875 10.375 -10.25 C 8.644531 -7.132812 6.429688 -5.507812 3.734375 -5.375 Z M 7.1875 -13.484375 C 5.988281 -13.535156 4.925781 -13.191406 4 -12.453125 C 3.070312 -11.722656 2.378906 -10.878906 1.921875 -9.921875 C 1.472656 -8.972656 1.347656 -8.191406 1.546875 -7.578125 C 1.753906 -6.972656 2.390625 -6.804688 3.453125 -7.078125 C 4.640625 -7.429688 5.691406 -8.109375 6.609375 -9.109375 C 7.523438 -10.109375 8.082031 -11.054688 8.28125 -11.953125 C 8.488281 -12.859375 8.125 -13.367188 7.1875 -13.484375 Z M 7.1875 -13.484375 "/></g></g><g style="fill:#151f28;fill-opacity:1;"><g transform="translate(294.314089, 91.278253)"><path style="stroke:none" d="M 18.046875 -11.90625 C 17.710938 -11.769531 17.363281 -11.65625 17 -11.5625 C 16.90625 -11.507812 16.820312 -11.472656 16.75 -11.453125 C 16.382812 -11.316406 16.019531 -11.1875 15.65625 -11.0625 C 14.632812 -10.726562 13.585938 -10.375 12.515625 -10 C 11.710938 -9.769531 11.082031 -9.269531 10.625 -8.5 C 9.882812 -7.300781 8.957031 -6.367188 7.84375 -5.703125 C 6.738281 -5.046875 5.613281 -4.578125 4.46875 -4.296875 C 3.320312 -4.015625 2.304688 -3.835938 1.421875 -3.765625 C 0.535156 -3.703125 -0.0351562 -3.6875 -0.296875 -3.71875 C -0.328125 -3.71875 -0.363281 -3.71875 -0.40625 -3.71875 C -0.769531 -3.488281 -1.132812 -3.039062 -1.5 -2.375 C -1.863281 -1.707031 -2.179688 -1.113281 -2.453125 -0.59375 C -2.503906 -0.457031 -2.546875 -0.335938 -2.578125 -0.234375 C -4.078125 2.765625 -5.5625 5.757812 -7.03125 8.75 C -7.851562 10.414062 -8.679688 12.078125 -9.515625 13.734375 C -9.785156 14.328125 -10.101562 14.894531 -10.46875 15.4375 C -10.800781 15.863281 -11.21875 15.945312 -11.71875 15.6875 C -12.050781 15.445312 -12.132812 15.113281 -11.96875 14.6875 C -11.800781 14.25 -11.617188 13.8125 -11.421875 13.375 C -8.828125 7.21875 -6.070312 1.132812 -3.15625 -4.875 C -2.25 -6.726562 -1.394531 -8.625 -0.59375 -10.5625 C -0.226562 -11.457031 0.148438 -12.375 0.546875 -13.3125 C 0.578125 -13.394531 0.628906 -13.488281 0.703125 -13.59375 C 0.898438 -14.09375 1.132812 -14.578125 1.40625 -15.046875 C 1.53125 -15.210938 1.753906 -15.316406 2.078125 -15.359375 C 2.410156 -15.410156 2.703125 -15.367188 2.953125 -15.234375 C 3.253906 -15.035156 3.40625 -14.738281 3.40625 -14.34375 C 3.40625 -14.144531 3.363281 -13.941406 3.28125 -13.734375 C 3.226562 -13.566406 3.191406 -13.398438 3.171875 -13.234375 C 3.160156 -13.066406 3.210938 -12.898438 3.328125 -12.734375 C 3.566406 -12.703125 3.773438 -12.734375 3.953125 -12.828125 C 4.140625 -12.929688 4.316406 -13.050781 4.484375 -13.1875 C 4.648438 -13.320312 4.847656 -13.421875 5.078125 -13.484375 C 5.210938 -13.554688 5.347656 -13.625 5.484375 -13.6875 C 6.210938 -14.019531 6.929688 -14.304688 7.640625 -14.546875 C 8.554688 -14.835938 9.46875 -14.769531 10.375 -14.34375 C 10.769531 -14.101562 11.066406 -13.804688 11.265625 -13.453125 C 11.460938 -13.109375 11.613281 -12.742188 11.71875 -12.359375 C 11.820312 -12.054688 12.097656 -11.894531 12.546875 -11.875 C 12.992188 -11.863281 13.492188 -11.921875 14.046875 -12.046875 C 14.597656 -12.171875 15.097656 -12.300781 15.546875 -12.4375 C 15.921875 -12.550781 16.191406 -12.617188 16.359375 -12.640625 C 16.816406 -12.753906 17.28125 -12.785156 17.75 -12.734375 C 17.882812 -12.734375 18.007812 -12.710938 18.125 -12.671875 C 18.238281 -12.628906 18.296875 -12.507812 18.296875 -12.3125 C 18.296875 -12.226562 18.269531 -12.144531 18.21875 -12.0625 C 18.175781 -11.988281 18.117188 -11.9375 18.046875 -11.90625 Z M 8.515625 -10.40625 C 8.816406 -10.601562 9.003906 -10.925781 9.078125 -11.375 C 9.148438 -11.832031 9.101562 -12.269531 8.9375 -12.6875 C 8.851562 -12.820312 8.75 -12.914062 8.625 -12.96875 C 8.5 -13.03125 8.367188 -13.0625 8.234375 -13.0625 C 7.953125 -13.007812 7.6875 -12.925781 7.4375 -12.8125 C 4.632812 -11.40625 2.375 -9.410156 0.65625 -6.828125 C 0.320312 -6.222656 0.363281 -5.953125 0.78125 -6.015625 C 1.195312 -6.085938 1.820312 -6.34375 2.65625 -6.78125 C 3.488281 -7.226562 4.347656 -7.742188 5.234375 -8.328125 C 6.128906 -8.910156 6.894531 -9.40625 7.53125 -9.8125 C 8.101562 -10.175781 8.429688 -10.375 8.515625 -10.40625 Z M 8.515625 -10.40625 "/></g></g><g style="fill:#151f28;fill-opacity:1;"><g transform="translate(310.085345, 91.278253)"><path style="stroke:none" d="M 18.046875 -11.90625 C 17.710938 -11.769531 17.363281 -11.65625 17 -11.5625 C 16.90625 -11.507812 16.820312 -11.472656 16.75 -11.453125 C 16.382812 -11.316406 16.019531 -11.1875 15.65625 -11.0625 C 14.632812 -10.726562 13.585938 -10.375 12.515625 -10 C 11.710938 -9.769531 11.082031 -9.269531 10.625 -8.5 C 9.882812 -7.300781 8.957031 -6.367188 7.84375 -5.703125 C 6.738281 -5.046875 5.613281 -4.578125 4.46875 -4.296875 C 3.320312 -4.015625 2.304688 -3.835938 1.421875 -3.765625 C 0.535156 -3.703125 -0.0351562 -3.6875 -0.296875 -3.71875 C -0.328125 -3.71875 -0.363281 -3.71875 -0.40625 -3.71875 C -0.769531 -3.488281 -1.132812 -3.039062 -1.5 -2.375 C -1.863281 -1.707031 -2.179688 -1.113281 -2.453125 -0.59375 C -2.503906 -0.457031 -2.546875 -0.335938 -2.578125 -0.234375 C -4.078125 2.765625 -5.5625 5.757812 -7.03125 8.75 C -7.851562 10.414062 -8.679688 12.078125 -9.515625 13.734375 C -9.785156 14.328125 -10.101562 14.894531 -10.46875 15.4375 C -10.800781 15.863281 -11.21875 15.945312 -11.71875 15.6875 C -12.050781 15.445312 -12.132812 15.113281 -11.96875 14.6875 C -11.800781 14.25 -11.617188 13.8125 -11.421875 13.375 C -8.828125 7.21875 -6.070312 1.132812 -3.15625 -4.875 C -2.25 -6.726562 -1.394531 -8.625 -0.59375 -10.5625 C -0.226562 -11.457031 0.148438 -12.375 0.546875 -13.3125 C 0.578125 -13.394531 0.628906 -13.488281 0.703125 -13.59375 C 0.898438 -14.09375 1.132812 -14.578125 1.40625 -15.046875 C 1.53125 -15.210938 1.753906 -15.316406 2.078125 -15.359375 C 2.410156 -15.410156 2.703125 -15.367188 2.953125 -15.234375 C 3.253906 -15.035156 3.40625 -14.738281 3.40625 -14.34375 C 3.40625 -14.144531 3.363281 -13.941406 3.28125 -13.734375 C 3.226562 -13.566406 3.191406 -13.398438 3.171875 -13.234375 C 3.160156 -13.066406 3.210938 -12.898438 3.328125 -12.734375 C 3.566406 -12.703125 3.773438 -12.734375 3.953125 -12.828125 C 4.140625 -12.929688 4.316406 -13.050781 4.484375 -13.1875 C 4.648438 -13.320312 4.847656 -13.421875 5.078125 -13.484375 C 5.210938 -13.554688 5.347656 -13.625 5.484375 -13.6875 C 6.210938 -14.019531 6.929688 -14.304688 7.640625 -14.546875 C 8.554688 -14.835938 9.46875 -14.769531 10.375 -14.34375 C 10.769531 -14.101562 11.066406 -13.804688 11.265625 -13.453125 C 11.460938 -13.109375 11.613281 -12.742188 11.71875 -12.359375 C 11.820312 -12.054688 12.097656 -11.894531 12.546875 -11.875 C 12.992188 -11.863281 13.492188 -11.921875 14.046875 -12.046875 C 14.597656 -12.171875 15.097656 -12.300781 15.546875 -12.4375 C 15.921875 -12.550781 16.191406 -12.617188 16.359375 -12.640625 C 16.816406 -12.753906 17.28125 -12.785156 17.75 -12.734375 C 17.882812 -12.734375 18.007812 -12.710938 18.125 -12.671875 C 18.238281 -12.628906 18.296875 -12.507812 18.296875 -12.3125 C 18.296875 -12.226562 18.269531 -12.144531 18.21875 -12.0625 C 18.175781 -11.988281 18.117188 -11.9375 18.046875 -11.90625 Z M 8.515625 -10.40625 C 8.816406 -10.601562 9.003906 -10.925781 9.078125 -11.375 C 9.148438 -11.832031 9.101562 -12.269531 8.9375 -12.6875 C 8.851562 -12.820312 8.75 -12.914062 8.625 -12.96875 C 8.5 -13.03125 8.367188 -13.0625 8.234375 -13.0625 C 7.953125 -13.007812 7.6875 -12.925781 7.4375 -12.8125 C 4.632812 -11.40625 2.375 -9.410156 0.65625 -6.828125 C 0.320312 -6.222656 0.363281 -5.953125 0.78125 -6.015625 C 1.195312 -6.085938 1.820312 -6.34375 2.65625 -6.78125 C 3.488281 -7.226562 4.347656 -7.742188 5.234375 -8.328125 C 6.128906 -8.910156 6.894531 -9.40625 7.53125 -9.8125 C 8.101562 -10.175781 8.429688 -10.375 8.515625 -10.40625 Z M 8.515625 -10.40625 "/></g></g><g style="fill:#151f28;fill-opacity:1;"><g transform="translate(325.856601, 91.278253)"><path style="stroke:none" d="M 12.921875 -8.703125 C 12.046875 -7.835938 11.023438 -7.097656 9.859375 -6.484375 C 8.691406 -5.878906 7.710938 -5.484375 6.921875 -5.296875 C 6.140625 -5.109375 5.335938 -5 4.515625 -4.96875 C 3.179688 -4.90625 1.957031 -5.085938 0.84375 -5.515625 C -0.988281 -6.253906 -1.625 -7.664062 -1.0625 -9.75 C -0.53125 -11.539062 0.539062 -12.941406 2.15625 -13.953125 C 3.769531 -14.972656 5.4375 -15.46875 7.15625 -15.4375 C 7.15625 -15.4375 7.171875 -15.4375 7.203125 -15.4375 C 7.640625 -15.46875 8.054688 -15.4375 8.453125 -15.34375 C 9.117188 -15.101562 9.539062 -14.707031 9.71875 -14.15625 C 9.90625 -13.613281 9.785156 -13.015625 9.359375 -12.359375 C 8.390625 -10.890625 7.078125 -10.070312 5.421875 -9.90625 C 4.316406 -9.800781 3.25 -9.851562 2.21875 -10.0625 C 2.019531 -10.09375 1.84375 -10.039062 1.6875 -9.90625 C 1.539062 -9.769531 1.453125 -9.601562 1.421875 -9.40625 C 1.117188 -8.101562 1.519531 -7.269531 2.625 -6.90625 C 3.988281 -6.4375 5.40625 -6.4375 6.875 -6.90625 C 8.5625 -7.4375 10.164062 -8.4375 11.6875 -9.90625 C 13.21875 -11.375 14.097656 -12.054688 14.328125 -11.953125 C 14.566406 -11.859375 14.640625 -11.578125 14.546875 -11.109375 C 14.335938 -10.367188 13.796875 -9.566406 12.921875 -8.703125 Z M 3.265625 -12.359375 C 3.171875 -12.242188 3.101562 -12.125 3.0625 -12 C 3.03125 -11.875 3.082031 -11.757812 3.21875 -11.65625 C 3.75 -11.351562 4.320312 -11.242188 4.9375 -11.328125 C 5.5625 -11.410156 6.085938 -11.644531 6.515625 -12.03125 C 6.941406 -12.414062 7.128906 -12.882812 7.078125 -13.4375 C 7.023438 -13.632812 6.914062 -13.757812 6.75 -13.8125 C 6.582031 -13.863281 6.414062 -13.875 6.25 -13.84375 C 5.132812 -13.65625 4.140625 -13.160156 3.265625 -12.359375 Z M 3.265625 -12.359375 "/></g></g></g></g><g transform="matrix(1,0,0,1,137,237)"><g clip-path="url(#84727f2c8a)"><g style="fill:#584910;fill-opacity:1;"><g transform="translate(1.290459, 11.100434)"><path style="stroke:none" d="M 12.671875 -7.78125 L 10.125 0 L 8.203125 0 L 6.484375 -5.265625 L 4.71875 0 L 2.796875 0 L 0.25 -7.78125 L 2.109375 -7.78125 L 3.859375 -2.3125 L 5.703125 -7.78125 L 7.359375 -7.78125 L 9.140625 -2.265625 L 10.953125 -7.78125 Z M 12.671875 -7.78125 "/></g></g><g style="fill:#584910;fill-opacity:1;"><g transform="translate(16.435943, 11.100434)"><path style="stroke:none" d="M 6.046875 -1.671875 L 2.4375 -1.671875 L 1.75 0 L -0.09375 0 L 3.359375 -7.78125 L 5.140625 -7.78125 L 8.625 0 L 6.734375 0 Z M 5.484375 -3.03125 L 4.25 -6.015625 L 3.015625 -3.03125 Z M 5.484375 -3.03125 "/></g></g><g style="fill:#584910;fill-opacity:1;"><g transform="translate(27.170388, 11.100434)"><path style="stroke:none" d="M 5.875 0 L 4.375 -2.171875 L 2.71875 -2.171875 L 2.71875 0 L 0.921875 0 L 0.921875 -7.78125 L 4.28125 -7.78125 C 4.976562 -7.78125 5.578125 -7.664062 6.078125 -7.4375 C 6.585938 -7.207031 6.976562 -6.878906 7.25 -6.453125 C 7.53125 -6.035156 7.671875 -5.535156 7.671875 -4.953125 C 7.671875 -4.378906 7.53125 -3.878906 7.25 -3.453125 C 6.96875 -3.035156 6.570312 -2.71875 6.0625 -2.5 L 7.8125 0 Z M 5.84375 -4.953125 C 5.84375 -5.390625 5.703125 -5.722656 5.421875 -5.953125 C 5.140625 -6.191406 4.726562 -6.3125 4.1875 -6.3125 L 2.71875 -6.3125 L 2.71875 -3.59375 L 4.1875 -3.59375 C 4.726562 -3.59375 5.140625 -3.710938 5.421875 -3.953125 C 5.703125 -4.191406 5.84375 -4.523438 5.84375 -4.953125 Z M 5.84375 -4.953125 "/></g></g><g style="fill:#584910;fill-opacity:1;"><g transform="translate(37.560396, 11.100434)"><path style="stroke:none" d="M 0.921875 -7.78125 L 4.453125 -7.78125 C 5.296875 -7.78125 6.039062 -7.617188 6.6875 -7.296875 C 7.34375 -6.972656 7.847656 -6.519531 8.203125 -5.9375 C 8.566406 -5.351562 8.75 -4.671875 8.75 -3.890625 C 8.75 -3.109375 8.566406 -2.425781 8.203125 -1.84375 C 7.847656 -1.257812 7.34375 -0.804688 6.6875 -0.484375 C 6.039062 -0.160156 5.296875 0 4.453125 0 L 0.921875 0 Z M 4.359375 -1.484375 C 5.140625 -1.484375 5.757812 -1.695312 6.21875 -2.125 C 6.6875 -2.5625 6.921875 -3.148438 6.921875 -3.890625 C 6.921875 -4.628906 6.6875 -5.210938 6.21875 -5.640625 C 5.757812 -6.078125 5.140625 -6.296875 4.359375 -6.296875 L 2.71875 -6.296875 L 2.71875 -1.484375 Z M 4.359375 -1.484375 "/></g></g><g style="fill:#584910;fill-opacity:1;"><g transform="translate(48.961493, 11.100434)"><path style="stroke:none" d="M 5.875 0 L 4.375 -2.171875 L 2.71875 -2.171875 L 2.71875 0 L 0.921875 0 L 0.921875 -7.78125 L 4.28125 -7.78125 C 4.976562 -7.78125 5.578125 -7.664062 6.078125 -7.4375 C 6.585938 -7.207031 6.976562 -6.878906 7.25 -6.453125 C 7.53125 -6.035156 7.671875 -5.535156 7.671875 -4.953125 C 7.671875 -4.378906 7.53125 -3.878906 7.25 -3.453125 C 6.96875 -3.035156 6.570312 -2.71875 6.0625 -2.5 L 7.8125 0 Z M 5.84375 -4.953125 C 5.84375 -5.390625 5.703125 -5.722656 5.421875 -5.953125 C 5.140625 -6.191406 4.726562 -6.3125 4.1875 -6.3125 L 2.71875 -6.3125 L 2.71875 -3.59375 L 4.1875 -3.59375 C 4.726562 -3.59375 5.140625 -3.710938 5.421875 -3.953125 C 5.703125 -4.191406 5.84375 -4.523438 5.84375 -4.953125 Z M 5.84375 -4.953125 "/></g></g><g style="fill:#584910;fill-opacity:1;"><g transform="translate(59.351501, 11.100434)"><path style="stroke:none" d="M 4.6875 0.140625 C 3.882812 0.140625 3.15625 -0.03125 2.5 -0.375 C 1.851562 -0.726562 1.347656 -1.210938 0.984375 -1.828125 C 0.617188 -2.441406 0.4375 -3.128906 0.4375 -3.890625 C 0.4375 -4.648438 0.617188 -5.332031 0.984375 -5.9375 C 1.347656 -6.550781 1.851562 -7.03125 2.5 -7.375 C 3.15625 -7.726562 3.882812 -7.90625 4.6875 -7.90625 C 5.5 -7.90625 6.222656 -7.726562 6.859375 -7.375 C 7.503906 -7.03125 8.007812 -6.550781 8.375 -5.9375 C 8.75 -5.332031 8.9375 -4.648438 8.9375 -3.890625 C 8.9375 -3.128906 8.75 -2.441406 8.375 -1.828125 C 8.007812 -1.210938 7.503906 -0.726562 6.859375 -0.375 C 6.222656 -0.03125 5.5 0.140625 4.6875 0.140625 Z M 4.6875 -1.40625 C 5.144531 -1.40625 5.554688 -1.507812 5.921875 -1.71875 C 6.296875 -1.925781 6.585938 -2.21875 6.796875 -2.59375 C 7.015625 -2.976562 7.125 -3.410156 7.125 -3.890625 C 7.125 -4.367188 7.015625 -4.796875 6.796875 -5.171875 C 6.585938 -5.554688 6.296875 -5.851562 5.921875 -6.0625 C 5.554688 -6.269531 5.144531 -6.375 4.6875 -6.375 C 4.226562 -6.375 3.8125 -6.269531 3.4375 -6.0625 C 3.070312 -5.851562 2.78125 -5.554688 2.5625 -5.171875 C 2.351562 -4.796875 2.25 -4.367188 2.25 -3.890625 C 2.25 -3.410156 2.351562 -2.976562 2.5625 -2.59375 C 2.78125 -2.21875 3.070312 -1.925781 3.4375 -1.71875 C 3.8125 -1.507812 4.226562 -1.40625 4.6875 -1.40625 Z M 4.6875 -1.40625 "/></g></g><g style="fill:#584910;fill-opacity:1;"><g transform="translate(70.952599, 11.100434)"><path style="stroke:none" d="M 6.625 -4.046875 C 7.070312 -3.898438 7.421875 -3.660156 7.671875 -3.328125 C 7.921875 -3.003906 8.046875 -2.601562 8.046875 -2.125 C 8.046875 -1.4375 7.78125 -0.910156 7.25 -0.546875 C 6.726562 -0.179688 5.957031 0 4.9375 0 L 0.921875 0 L 0.921875 -7.78125 L 4.71875 -7.78125 C 5.664062 -7.78125 6.394531 -7.597656 6.90625 -7.234375 C 7.414062 -6.867188 7.671875 -6.375 7.671875 -5.75 C 7.671875 -5.375 7.578125 -5.035156 7.390625 -4.734375 C 7.210938 -4.441406 6.957031 -4.210938 6.625 -4.046875 Z M 2.703125 -6.421875 L 2.703125 -4.59375 L 4.5 -4.59375 C 4.945312 -4.59375 5.285156 -4.671875 5.515625 -4.828125 C 5.742188 -4.984375 5.859375 -5.210938 5.859375 -5.515625 C 5.859375 -5.816406 5.742188 -6.039062 5.515625 -6.1875 C 5.285156 -6.34375 4.945312 -6.421875 4.5 -6.421875 Z M 4.8125 -1.359375 C 5.28125 -1.359375 5.632812 -1.4375 5.875 -1.59375 C 6.125 -1.75 6.25 -1.988281 6.25 -2.3125 C 6.25 -2.957031 5.769531 -3.28125 4.8125 -3.28125 L 2.703125 -3.28125 L 2.703125 -1.359375 Z M 4.8125 -1.359375 "/></g></g><g style="fill:#584910;fill-opacity:1;"><g transform="translate(81.675939, 11.100434)"><path style="stroke:none" d="M 6.9375 -1.4375 L 6.9375 0 L 0.921875 0 L 0.921875 -7.78125 L 6.796875 -7.78125 L 6.796875 -6.328125 L 2.703125 -6.328125 L 2.703125 -4.640625 L 6.328125 -4.640625 L 6.328125 -3.25 L 2.703125 -3.25 L 2.703125 -1.4375 Z M 6.9375 -1.4375 "/></g></g></g></g></g></svg>