<svg xmlns="http://www.w3.org/2000/svg" xmlns:xlink="http://www.w3.org/1999/xlink" width="500" zoomAndPan="magnify" viewBox="0 0 375 374.999991" height="500" preserveAspectRatio="xMidYMid meet" version="1.0"><defs><g/><clipPath id="e7447ef4ac"><path d="M 0.441406 16 L 46 16 L 46 80 L 0.441406 80 Z M 0.441406 16 " clip-rule="nonzero"/></clipPath><clipPath id="8585a706a1"><rect x="0" width="310" y="0" height="105"/></clipPath></defs><rect x="-37.5" width="450" fill="#ffffff" y="-37.499999" height="449.999989" fill-opacity="1"/><rect x="-37.5" width="450" fill="#000000" y="-37.499999" height="449.999989" fill-opacity="1"/><g transform="matrix(1, 0, 0, 1, 37, 135)"><g clip-path="url(#8585a706a1)"><g clip-path="url(#e7447ef4ac)"><g fill="#b4b4b4" fill-opacity="1"><g transform="translate(0.500002, 71.301843)"><g><path d="M 41.828125 -51.453125 C 42.429688 -50.984375 42.859375 -50.4375 43.109375 -49.8125 C 43.367188 -49.1875 43.640625 -48.546875 43.921875 -47.890625 C 44.335938 -47.148438 44.289062 -46.328125 43.78125 -45.421875 C 43.269531 -44.515625 42.804688 -43.738281 42.390625 -43.09375 C 41.785156 -42.15625 41.109375 -41.242188 40.359375 -40.359375 C 39.617188 -39.484375 38.851562 -38.625 38.0625 -37.78125 C 37.457031 -37.175781 36.84375 -36.546875 36.21875 -35.890625 C 35.59375 -35.242188 34.882812 -34.691406 34.09375 -34.234375 C 33.625 -33.953125 33.144531 -33.800781 32.65625 -33.78125 C 32.175781 -33.757812 31.863281 -33.875 31.71875 -34.125 C 31.582031 -34.382812 31.789062 -34.789062 32.34375 -35.34375 C 32.488281 -35.4375 32.6875 -35.738281 32.9375 -36.25 C 33.195312 -36.757812 33.5 -37.335938 33.84375 -37.984375 C 34.195312 -38.640625 34.546875 -39.210938 34.890625 -39.703125 C 35.242188 -40.191406 35.535156 -40.4375 35.765625 -40.4375 C 35.722656 -40.394531 35.582031 -40.140625 35.34375 -39.671875 C 35.113281 -39.203125 34.90625 -38.804688 34.71875 -38.484375 C 35.1875 -39.128906 35.78125 -40.019531 36.5 -41.15625 C 37.21875 -42.300781 37.851562 -43.5 38.40625 -44.75 C 38.96875 -46.007812 39.238281 -47.160156 39.21875 -48.203125 C 39.195312 -49.253906 38.695312 -50.007812 37.71875 -50.46875 C 36.925781 -50.84375 35.992188 -50.914062 34.921875 -50.6875 C 33.859375 -50.457031 32.929688 -50.203125 32.140625 -49.921875 C 30.367188 -49.316406 28.671875 -48.382812 27.046875 -47.125 C 29.273438 -48.800781 31.738281 -49.875 34.4375 -50.34375 C 35.039062 -50.425781 35.703125 -50.488281 36.421875 -50.53125 C 37.148438 -50.582031 37.742188 -50.398438 38.203125 -49.984375 C 38.710938 -49.472656 38.910156 -48.9375 38.796875 -48.375 C 38.679688 -47.820312 38.578125 -47.289062 38.484375 -46.78125 C 38.484375 -47.382812 38.492188 -47.941406 38.515625 -48.453125 C 38.535156 -48.960938 38.414062 -49.40625 38.15625 -49.78125 C 37.90625 -50.15625 37.34375 -50.363281 36.46875 -50.40625 C 35.394531 -50.445312 34.3125 -50.304688 33.21875 -49.984375 C 32.125 -49.660156 31.113281 -49.265625 30.1875 -48.796875 C 28.5625 -48.015625 27.039062 -46.957031 25.625 -45.625 C 24.207031 -44.300781 23.078125 -42.828125 22.234375 -41.203125 C 21.304688 -39.390625 20.890625 -37.539062 20.984375 -35.65625 C 21.078125 -33.78125 21.457031 -31.921875 22.125 -30.078125 C 22.800781 -28.242188 23.59375 -26.429688 24.5 -24.640625 C 25.40625 -22.859375 26.207031 -21.148438 26.90625 -19.515625 C 26.207031 -20.867188 25.472656 -22.195312 24.703125 -23.5 C 23.941406 -24.800781 23.238281 -26.101562 22.59375 -27.40625 C 23.101562 -26.332031 23.492188 -25.285156 23.765625 -24.265625 C 24.046875 -23.242188 24.488281 -22.195312 25.09375 -21.125 C 25.882812 -19.820312 26.660156 -18.554688 27.421875 -17.328125 C 28.191406 -16.097656 28.8125 -14.738281 29.28125 -13.25 C 30.207031 -10.132812 30.226562 -7.285156 29.34375 -4.703125 C 28.46875 -2.128906 26.820312 0.203125 24.40625 2.296875 L 25.796875 1.328125 C 25.796875 1.835938 25.476562 2.367188 24.84375 2.921875 C 24.21875 3.484375 23.441406 4.019531 22.515625 4.53125 C 21.585938 5.039062 20.703125 5.484375 19.859375 5.859375 C 19.023438 6.234375 18.425781 6.488281 18.0625 6.625 C 15.96875 7.457031 13.65625 7.910156 11.125 7.984375 C 8.59375 8.054688 6.28125 7.578125 4.1875 6.546875 C 2.695312 5.765625 1.625 4.742188 0.96875 3.484375 C 0.320312 2.234375 0 0.878906 0 -0.578125 C 0 -2.046875 0.226562 -3.523438 0.6875 -5.015625 C 1.15625 -6.503906 1.765625 -7.832031 2.515625 -9 C 2.691406 -9.269531 3.09375 -9.8125 3.71875 -10.625 C 4.351562 -11.445312 5.078125 -12.25 5.890625 -13.03125 C 6.703125 -13.820312 7.476562 -14.390625 8.21875 -14.734375 C 8.96875 -15.085938 9.53125 -14.914062 9.90625 -14.21875 C 10.132812 -13.851562 10.097656 -13.332031 9.796875 -12.65625 C 9.492188 -11.976562 9.132812 -11.289062 8.71875 -10.59375 C 8.300781 -9.894531 8.019531 -9.363281 7.875 -9 C 7.59375 -8.394531 7.359375 -7.789062 7.171875 -7.1875 C 6.992188 -6.582031 6.832031 -5.953125 6.6875 -5.296875 C 6.457031 -4.179688 6.296875 -2.992188 6.203125 -1.734375 C 6.109375 -0.484375 6.296875 0.675781 6.765625 1.75 C 7.316406 3.039062 8.242188 3.769531 9.546875 3.9375 C 10.847656 4.101562 12.101562 4.019531 13.3125 3.6875 C 14.988281 3.175781 16.546875 2.335938 17.984375 1.171875 C 19.429688 0.015625 20.59375 -1.300781 21.46875 -2.78125 C 21.9375 -3.570312 22.320312 -4.394531 22.625 -5.25 C 22.925781 -6.113281 23.097656 -6.988281 23.140625 -7.875 C 23.140625 -8.53125 23.070312 -9.207031 22.9375 -9.90625 C 22.894531 -10.082031 22.800781 -10.3125 22.65625 -10.59375 C 22.519531 -10.875 22.472656 -11.128906 22.515625 -11.359375 C 22.515625 -11.222656 22.570312 -11.050781 22.6875 -10.84375 C 22.8125 -10.632812 22.894531 -10.4375 22.9375 -10.25 C 22.894531 -10.476562 22.835938 -10.707031 22.765625 -10.9375 C 22.691406 -11.175781 22.632812 -11.4375 22.59375 -11.71875 C 22.59375 -11.664062 22.546875 -11.734375 22.453125 -11.921875 C 22.359375 -12.109375 22.285156 -12.203125 22.234375 -12.203125 C 22.003906 -12.753906 21.820312 -13.265625 21.6875 -13.734375 L 20.421875 -16.875 C 19.722656 -18.6875 18.976562 -20.484375 18.1875 -22.265625 C 17.40625 -24.054688 16.617188 -25.859375 15.828125 -27.671875 C 15.265625 -29.023438 14.804688 -30.410156 14.453125 -31.828125 C 14.109375 -33.242188 13.890625 -34.671875 13.796875 -36.109375 C 13.796875 -36.347656 13.773438 -36.859375 13.734375 -37.640625 C 13.691406 -38.429688 13.710938 -39.1875 13.796875 -39.90625 C 13.890625 -40.632812 14.125 -41 14.5 -41 C 14.457031 -41 14.398438 -40.8125 14.328125 -40.4375 C 14.253906 -40.0625 14.242188 -39.875 14.296875 -39.875 C 14.566406 -41.175781 15.050781 -42.476562 15.75 -43.78125 L 15.265625 -43.09375 C 15.410156 -43.925781 15.769531 -44.738281 16.34375 -45.53125 C 16.925781 -46.320312 17.578125 -47.078125 18.296875 -47.796875 C 19.015625 -48.515625 19.65625 -49.128906 20.21875 -49.640625 C 22.726562 -51.960938 25.632812 -53.539062 28.9375 -54.375 C 30.601562 -54.800781 32.203125 -54.894531 33.734375 -54.65625 C 35.273438 -54.425781 36.835938 -53.984375 38.421875 -53.328125 C 39.066406 -53.097656 39.679688 -52.832031 40.265625 -52.53125 C 40.847656 -52.226562 41.367188 -51.867188 41.828125 -51.453125 Z M 2.859375 5.015625 C 1.972656 3.859375 1.472656 2.375 1.359375 0.5625 C 1.242188 -1.25 1.453125 -3.117188 1.984375 -5.046875 C 2.515625 -6.984375 3.25 -8.625 4.1875 -9.96875 C 3.113281 -8.476562 2.25 -6.863281 1.59375 -5.125 C 0.945312 -3.382812 0.691406 -1.644531 0.828125 0.09375 C 0.972656 1.84375 1.648438 3.484375 2.859375 5.015625 Z M 20.84375 -35.5625 L 20.84375 -34.578125 C 20.84375 -34.722656 20.851562 -34.875 20.875 -35.03125 C 20.90625 -35.195312 20.894531 -35.375 20.84375 -35.5625 Z M 20.84375 -35.5625 "/></g></g></g></g><g fill="#b4b4b4" fill-opacity="1"><g transform="translate(35.28765, 71.301843)"><g><path d="M 32.984375 -17.015625 C 33.023438 -16.597656 32.847656 -16.070312 32.453125 -15.4375 C 32.054688 -14.8125 31.742188 -14.3125 31.515625 -13.9375 C 31.046875 -13.101562 30.484375 -12.300781 29.828125 -11.53125 C 29.179688 -10.769531 28.535156 -10.015625 27.890625 -9.265625 C 27.234375 -8.578125 26.472656 -7.773438 25.609375 -6.859375 C 24.753906 -5.953125 23.828125 -5.160156 22.828125 -4.484375 C 21.828125 -3.816406 20.769531 -3.4375 19.65625 -3.34375 C 18.914062 -3.300781 18.171875 -3.453125 17.421875 -3.796875 C 16.679688 -4.148438 16.101562 -4.675781 15.6875 -5.375 C 15.21875 -6.25 15.019531 -7.1875 15.09375 -8.1875 C 15.164062 -9.1875 15.375 -10.175781 15.71875 -11.15625 C 16.070312 -12.132812 16.382812 -13.015625 16.65625 -13.796875 C 15.78125 -12.734375 14.898438 -11.65625 14.015625 -10.5625 C 13.128906 -9.46875 12.242188 -8.363281 11.359375 -7.25 C 11.222656 -7.113281 10.851562 -6.726562 10.25 -6.09375 C 9.644531 -5.46875 8.957031 -4.804688 8.1875 -4.109375 C 7.425781 -3.410156 6.726562 -2.851562 6.09375 -2.4375 C 5.46875 -2.019531 5.0625 -1.925781 4.875 -2.15625 C 4.875 -2.207031 4.976562 -2.28125 5.1875 -2.375 C 5.394531 -2.46875 5.476562 -2.535156 5.4375 -2.578125 C 5.113281 -2.390625 4.753906 -2.210938 4.359375 -2.046875 C 3.960938 -1.890625 3.578125 -1.8125 3.203125 -1.8125 C 3.253906 -1.769531 3.375 -1.75 3.5625 -1.75 C 3.601562 -1.601562 3.460938 -1.550781 3.140625 -1.59375 C 2.816406 -1.644531 2.476562 -1.738281 2.125 -1.875 C 1.78125 -2.019531 1.5625 -2.113281 1.46875 -2.15625 C 1.09375 -2.53125 0.800781 -2.972656 0.59375 -3.484375 C 0.382812 -3.992188 0.234375 -4.484375 0.140625 -4.953125 C -0.046875 -6.066406 -0.0703125 -7.179688 0.0625 -8.296875 C 0.207031 -9.410156 0.421875 -10.503906 0.703125 -11.578125 C 0.972656 -12.691406 1.269531 -13.789062 1.59375 -14.875 C 1.925781 -15.96875 2.320312 -17.050781 2.78125 -18.125 C 3.019531 -18.6875 3.320312 -19.148438 3.6875 -19.515625 C 4.0625 -19.890625 4.363281 -20.3125 4.59375 -20.78125 C 4.96875 -21.65625 5.421875 -22.59375 5.953125 -23.59375 C 6.492188 -24.59375 7.132812 -25.394531 7.875 -26 C 8.53125 -26.5625 9.332031 -26.816406 10.28125 -26.765625 C 11.238281 -26.722656 12.019531 -26.445312 12.625 -25.9375 C 13.269531 -25.46875 13.5 -25.070312 13.3125 -24.75 C 13.125 -24.425781 12.894531 -24.007812 12.625 -23.5 C 12.757812 -23.726562 12.894531 -23.863281 13.03125 -23.90625 C 13.082031 -23.90625 12.96875 -23.625 12.6875 -23.0625 C 12.40625 -22.507812 12.113281 -21.953125 11.8125 -21.390625 C 11.507812 -20.835938 11.289062 -20.5625 11.15625 -20.5625 C 11.15625 -20.5625 11.203125 -20.703125 11.296875 -20.984375 C 11.390625 -21.265625 11.484375 -21.5 11.578125 -21.6875 C 11.109375 -20.894531 10.664062 -20.078125 10.25 -19.234375 C 9.832031 -18.398438 9.4375 -17.566406 9.0625 -16.734375 C 9.195312 -16.921875 9.335938 -17.015625 9.484375 -17.015625 C 9.429688 -17.015625 9.265625 -16.6875 8.984375 -16.03125 C 8.710938 -15.382812 8.398438 -14.617188 8.046875 -13.734375 C 7.703125 -12.847656 7.390625 -12.046875 7.109375 -11.328125 C 6.828125 -10.609375 6.664062 -10.179688 6.625 -10.046875 C 6.53125 -9.710938 6.390625 -9.21875 6.203125 -8.5625 C 6.015625 -7.914062 5.941406 -7.375 5.984375 -6.9375 C 6.035156 -6.5 6.363281 -6.367188 6.96875 -6.546875 C 7.988281 -6.828125 8.960938 -7.515625 9.890625 -8.609375 C 10.828125 -9.703125 11.597656 -10.617188 12.203125 -11.359375 C 13.035156 -12.296875 13.8125 -13.273438 14.53125 -14.296875 C 15.25 -15.316406 15.984375 -16.335938 16.734375 -17.359375 C 17.242188 -18.148438 17.800781 -19.007812 18.40625 -19.9375 C 19.007812 -20.863281 19.738281 -21.601562 20.59375 -22.15625 C 21.457031 -22.71875 22.472656 -22.835938 23.640625 -22.515625 C 24.703125 -22.234375 25.234375 -21.722656 25.234375 -20.984375 C 25.234375 -20.242188 25.007812 -19.441406 24.5625 -18.578125 C 24.125 -17.722656 23.742188 -16.96875 23.421875 -16.3125 C 23.660156 -16.539062 23.78125 -16.632812 23.78125 -16.59375 C 23.914062 -16.457031 23.890625 -16.117188 23.703125 -15.578125 C 23.515625 -15.046875 23.304688 -14.5 23.078125 -13.9375 C 22.847656 -13.382812 22.6875 -12.992188 22.59375 -12.765625 C 22.40625 -12.109375 22.191406 -11.40625 21.953125 -10.65625 C 21.722656 -9.914062 21.585938 -9.175781 21.546875 -8.4375 C 21.492188 -7.601562 21.59375 -7.226562 21.84375 -7.3125 C 22.101562 -7.40625 22.515625 -7.664062 23.078125 -8.09375 C 24.285156 -9.019531 25.390625 -10.050781 26.390625 -11.1875 C 27.390625 -12.320312 28.398438 -13.425781 29.421875 -14.5 C 29.460938 -14.550781 29.65625 -14.757812 30 -15.125 C 30.351562 -15.5 30.75 -15.894531 31.1875 -16.3125 C 31.632812 -16.726562 32.03125 -17.03125 32.375 -17.21875 C 32.726562 -17.40625 32.929688 -17.335938 32.984375 -17.015625 Z M 22.375 -15.609375 C 22.613281 -16.359375 22.894531 -17.09375 23.21875 -17.8125 C 23.539062 -18.53125 23.84375 -19.265625 24.125 -20.015625 C 23.894531 -19.453125 23.566406 -18.832031 23.140625 -18.15625 C 22.722656 -17.488281 22.363281 -16.828125 22.0625 -16.171875 C 21.757812 -15.523438 21.703125 -14.898438 21.890625 -14.296875 C 21.890625 -14.203125 21.867188 -14.128906 21.828125 -14.078125 C 21.921875 -14.171875 21.96875 -14.242188 21.96875 -14.296875 C 22.050781 -14.484375 22.128906 -14.703125 22.203125 -14.953125 C 22.273438 -15.210938 22.332031 -15.429688 22.375 -15.609375 Z M 5.78125 -6.625 C 5.738281 -6.945312 5.914062 -7.804688 6.3125 -9.203125 C 6.707031 -10.597656 7.132812 -11.96875 7.59375 -13.3125 C 7.226562 -12.382812 6.785156 -11.289062 6.265625 -10.03125 C 5.753906 -8.78125 5.59375 -7.644531 5.78125 -6.625 Z M 16.65625 -13.453125 C 16.75 -13.734375 16.84375 -13.941406 16.9375 -14.078125 C 16.75 -13.941406 16.65625 -13.734375 16.65625 -13.453125 Z M 16.65625 -13.453125 "/></g></g></g><g fill="#b4b4b4" fill-opacity="1"><g transform="translate(63.173542, 71.301843)"><g><path d="M 28.859375 -16.59375 C 28.953125 -16.03125 28.789062 -15.421875 28.375 -14.765625 C 27.957031 -14.117188 27.46875 -13.492188 26.90625 -12.890625 C 26.351562 -12.285156 25.9375 -11.800781 25.65625 -11.4375 C 24.914062 -10.457031 24.171875 -9.46875 23.421875 -8.46875 C 22.679688 -7.46875 21.894531 -6.503906 21.0625 -5.578125 C 20.632812 -5.160156 20.128906 -4.671875 19.546875 -4.109375 C 18.972656 -3.554688 18.359375 -3.128906 17.703125 -2.828125 C 17.054688 -2.523438 16.40625 -2.46875 15.75 -2.65625 C 15.613281 -2.695312 15.300781 -2.84375 14.8125 -3.09375 C 14.320312 -3.351562 13.867188 -3.632812 13.453125 -3.9375 C 13.035156 -4.238281 12.828125 -4.4375 12.828125 -4.53125 L 13.03125 -4.390625 L 12.625 -4.8125 C 12.800781 -4.53125 12.773438 -4.484375 12.546875 -4.671875 C 12.316406 -4.859375 12.175781 -4.953125 12.125 -4.953125 C 11.945312 -5.140625 11.785156 -5.359375 11.640625 -5.609375 C 11.503906 -5.867188 11.390625 -6.09375 11.296875 -6.28125 C 11.109375 -6.644531 10.988281 -7.023438 10.9375 -7.421875 C 10.894531 -7.816406 10.875 -8.203125 10.875 -8.578125 C 10.875 -8.953125 10.894531 -9.332031 10.9375 -9.71875 C 10.988281 -10.113281 11.035156 -10.5 11.078125 -10.875 C 11.171875 -11.664062 11.253906 -12.429688 11.328125 -13.171875 C 11.398438 -13.921875 11.550781 -14.664062 11.78125 -15.40625 C 11.832031 -15.539062 11.992188 -15.945312 12.265625 -16.625 C 12.546875 -17.300781 12.847656 -17.960938 13.171875 -18.609375 C 13.503906 -19.265625 13.738281 -19.566406 13.875 -19.515625 C 13.96875 -19.515625 13.957031 -19.429688 13.84375 -19.265625 C 13.726562 -19.109375 13.691406 -19.007812 13.734375 -18.96875 L 14.703125 -20.921875 C 14.660156 -20.867188 14.613281 -20.804688 14.5625 -20.734375 C 14.519531 -20.671875 14.453125 -20.613281 14.359375 -20.5625 C 14.316406 -20.613281 14.457031 -20.914062 14.78125 -21.46875 C 15.101562 -22.03125 15.3125 -22.40625 15.40625 -22.59375 C 14.707031 -21.800781 14.066406 -20.984375 13.484375 -20.140625 C 12.910156 -19.304688 12.296875 -18.472656 11.640625 -17.640625 C 11.179688 -17.035156 10.707031 -16.507812 10.21875 -16.0625 C 9.726562 -15.625 9.320312 -15.128906 9 -14.578125 C 8.25 -13.316406 7.46875 -12.09375 6.65625 -10.90625 C 5.84375 -9.726562 5.132812 -8.488281 4.53125 -7.1875 L 4.25 -7.734375 C 3.832031 -7.222656 3.367188 -7.023438 2.859375 -7.140625 C 2.347656 -7.265625 1.867188 -7.546875 1.421875 -7.984375 C 0.984375 -8.421875 0.648438 -8.828125 0.421875 -9.203125 C 0.0976562 -9.765625 -0.0390625 -10.285156 0 -10.765625 C 0.0390625 -11.253906 0.0859375 -11.800781 0.140625 -12.40625 C 0.234375 -12.96875 0.28125 -13.523438 0.28125 -14.078125 C 0.28125 -14.640625 0.375 -15.222656 0.5625 -15.828125 C 0.789062 -16.566406 1.03125 -17.285156 1.28125 -17.984375 C 1.539062 -18.679688 1.8125 -19.40625 2.09375 -20.15625 C 2.320312 -20.894531 2.5625 -21.625 2.8125 -22.34375 C 3.070312 -23.0625 3.34375 -23.796875 3.625 -24.546875 C 3.8125 -25.003906 4.039062 -25.5 4.3125 -26.03125 C 4.59375 -26.570312 4.78125 -27.070312 4.875 -27.53125 C 4.96875 -27.90625 5.023438 -28.234375 5.046875 -28.515625 C 5.078125 -28.796875 5.320312 -29.078125 5.78125 -29.359375 C 6.207031 -29.585938 6.640625 -29.710938 7.078125 -29.734375 C 7.515625 -29.753906 7.96875 -29.71875 8.4375 -29.625 C 8.8125 -29.582031 9.226562 -29.421875 9.6875 -29.140625 C 10.15625 -28.859375 10.492188 -28.5 10.703125 -28.0625 C 10.910156 -27.625 10.804688 -27.101562 10.390625 -26.5 C 10.160156 -26.164062 9.859375 -25.835938 9.484375 -25.515625 C 9.109375 -25.191406 8.78125 -24.84375 8.5 -24.46875 C 8.175781 -24.09375 7.988281 -23.773438 7.9375 -23.515625 C 7.894531 -23.265625 7.804688 -22.910156 7.671875 -22.453125 C 7.617188 -22.171875 7.476562 -21.898438 7.25 -21.640625 C 7.019531 -21.390625 6.832031 -21.125 6.6875 -20.84375 C 6.507812 -20.46875 6.335938 -20.046875 6.171875 -19.578125 C 6.003906 -19.117188 5.851562 -18.660156 5.71875 -18.203125 C 5.664062 -17.921875 5.640625 -17.660156 5.640625 -17.421875 C 5.640625 -17.191406 5.617188 -16.9375 5.578125 -16.65625 C 5.523438 -15.914062 5.40625 -15.1875 5.21875 -14.46875 C 5.039062 -13.75 4.90625 -13.015625 4.8125 -12.265625 C 4.851562 -12.410156 4.957031 -12.570312 5.125 -12.75 C 5.289062 -12.9375 5.394531 -13.007812 5.4375 -12.96875 C 5.476562 -12.914062 5.367188 -12.691406 5.109375 -12.296875 C 4.859375 -11.910156 4.757812 -11.71875 4.8125 -11.71875 L 8.921875 -17.703125 C 8.460938 -17.097656 8.082031 -16.609375 7.78125 -16.234375 C 7.476562 -15.867188 7.328125 -15.6875 7.328125 -15.6875 C 7.273438 -15.726562 7.515625 -16.109375 8.046875 -16.828125 C 8.585938 -17.554688 9.273438 -18.460938 10.109375 -19.546875 C 10.941406 -20.640625 11.8125 -21.742188 12.71875 -22.859375 C 13.625 -23.984375 14.414062 -24.960938 15.09375 -25.796875 C 15.769531 -26.628906 16.203125 -27.140625 16.390625 -27.328125 C 17.410156 -28.253906 18.476562 -28.648438 19.59375 -28.515625 C 20.707031 -28.378906 21.5 -27.492188 21.96875 -25.859375 C 22.332031 -24.703125 22.269531 -23.65625 21.78125 -22.71875 C 21.300781 -21.789062 20.648438 -20.910156 19.828125 -20.078125 C 19.015625 -19.242188 18.332031 -18.40625 17.78125 -17.5625 C 17.3125 -16.863281 16.890625 -16.117188 16.515625 -15.328125 C 16.148438 -14.546875 15.78125 -13.78125 15.40625 -13.03125 C 15.175781 -12.570312 14.863281 -11.910156 14.46875 -11.046875 C 14.070312 -10.191406 13.828125 -9.367188 13.734375 -8.578125 C 13.828125 -9.085938 14.007812 -9.628906 14.28125 -10.203125 C 14.5625 -10.785156 14.773438 -11.242188 14.921875 -11.578125 C 15.472656 -13.015625 16.285156 -14.242188 17.359375 -15.265625 C 17.128906 -14.804688 16.882812 -14.363281 16.625 -13.9375 C 16.375 -13.519531 16.128906 -13.101562 15.890625 -12.6875 L 16.25 -13.109375 C 16.289062 -13.109375 16.253906 -12.910156 16.140625 -12.515625 C 16.023438 -12.117188 15.90625 -11.710938 15.78125 -11.296875 C 15.664062 -10.878906 15.585938 -10.644531 15.546875 -10.59375 C 15.410156 -10.175781 15.28125 -9.742188 15.15625 -9.296875 C 15.039062 -8.859375 14.960938 -8.410156 14.921875 -7.953125 C 14.867188 -7.898438 14.851562 -7.6875 14.875 -7.3125 C 14.90625 -6.945312 14.921875 -6.765625 14.921875 -6.765625 L 14.984375 -6.6875 C 14.984375 -6.738281 15.078125 -6.773438 15.265625 -6.796875 C 15.453125 -6.816406 15.566406 -6.851562 15.609375 -6.90625 C 16.128906 -7.09375 16.644531 -7.394531 17.15625 -7.8125 C 17.664062 -8.226562 18.128906 -8.597656 18.546875 -8.921875 C 19.378906 -9.578125 20.203125 -10.265625 21.015625 -10.984375 C 21.828125 -11.703125 22.628906 -12.410156 23.421875 -13.109375 C 24.023438 -13.660156 24.675781 -14.210938 25.375 -14.765625 C 26.070312 -15.328125 26.65625 -15.910156 27.125 -16.515625 C 27.351562 -16.847656 27.648438 -17.148438 28.015625 -17.421875 C 28.390625 -17.703125 28.671875 -17.425781 28.859375 -16.59375 Z M 28.859375 -16.59375 "/></g></g></g><g fill="#b4b4b4" fill-opacity="1"><g transform="translate(86.946264, 71.301843)"><g><path d="M 18.265625 -17.15625 C 18.398438 -16.5 18.25 -15.820312 17.8125 -15.125 C 17.375 -14.425781 16.96875 -13.847656 16.59375 -13.390625 C 15.988281 -12.503906 15.394531 -11.640625 14.8125 -10.796875 C 14.226562 -9.960938 13.613281 -9.128906 12.96875 -8.296875 C 12.269531 -7.367188 11.46875 -6.300781 10.5625 -5.09375 C 9.65625 -3.882812 8.597656 -3.140625 7.390625 -2.859375 C 7.203125 -2.859375 6.851562 -2.914062 6.34375 -3.03125 C 5.832031 -3.144531 5.351562 -3.28125 4.90625 -3.4375 C 4.46875 -3.601562 4.25 -3.757812 4.25 -3.90625 L 4.390625 -3.90625 C 4.109375 -4.039062 4.003906 -4.035156 4.078125 -3.890625 C 4.148438 -3.753906 3.976562 -3.851562 3.5625 -4.1875 C 3.226562 -4.414062 2.957031 -4.671875 2.75 -4.953125 C 2.539062 -5.234375 2.320312 -5.535156 2.09375 -5.859375 C 1.71875 -6.367188 1.320312 -6.878906 0.90625 -7.390625 C 0.488281 -7.898438 0.207031 -8.457031 0.0625 -9.0625 C 0.0625 -9.195312 0.0507812 -9.5 0.03125 -9.96875 C 0.0078125 -10.4375 0.0195312 -10.878906 0.0625 -11.296875 C 0.113281 -11.710938 0.234375 -11.921875 0.421875 -11.921875 C 0.515625 -11.921875 0.535156 -11.863281 0.484375 -11.75 C 0.441406 -11.632812 0.441406 -11.578125 0.484375 -11.578125 L 0.703125 -12.828125 C 0.609375 -12.691406 0.535156 -12.597656 0.484375 -12.546875 C 0.441406 -12.546875 0.46875 -12.800781 0.5625 -13.3125 C 0.65625 -13.820312 0.78125 -14.425781 0.9375 -15.125 C 1.101562 -15.820312 1.253906 -16.445312 1.390625 -17 C 1.535156 -17.5625 1.628906 -17.890625 1.671875 -17.984375 C 1.953125 -18.734375 2.21875 -19.476562 2.46875 -20.21875 C 2.726562 -20.957031 3.207031 -21.539062 3.90625 -21.96875 C 4.414062 -22.332031 4.992188 -22.488281 5.640625 -22.4375 C 6.296875 -22.394531 6.945312 -22.238281 7.59375 -21.96875 C 7.875 -21.875 8.304688 -21.675781 8.890625 -21.375 C 9.472656 -21.070312 9.765625 -20.734375 9.765625 -20.359375 C 9.765625 -20.171875 9.691406 -20.03125 9.546875 -19.9375 C 9.410156 -19.84375 9.296875 -19.75 9.203125 -19.65625 C 9.242188 -19.707031 9.335938 -19.734375 9.484375 -19.734375 C 9.578125 -19.679688 9.457031 -19.398438 9.125 -18.890625 C 8.800781 -18.378906 8.59375 -18.148438 8.5 -18.203125 C 8.457031 -18.203125 8.457031 -18.269531 8.5 -18.40625 C 8.550781 -18.539062 8.597656 -18.65625 8.640625 -18.75 C 7.335938 -16.613281 6.25 -14.269531 5.375 -11.71875 C 5.507812 -12.039062 5.738281 -12.582031 6.0625 -13.34375 C 6.382812 -14.113281 6.71875 -14.832031 7.0625 -15.5 C 7.414062 -16.175781 7.617188 -16.492188 7.671875 -16.453125 C 7.710938 -16.453125 7.59375 -16.160156 7.3125 -15.578125 C 7.039062 -14.992188 6.707031 -14.257812 6.3125 -13.375 C 5.914062 -12.5 5.566406 -11.609375 5.265625 -10.703125 C 4.960938 -9.796875 4.796875 -8.984375 4.765625 -8.265625 C 4.742188 -7.546875 4.96875 -7.066406 5.4375 -6.828125 C 5.8125 -6.640625 6.238281 -6.660156 6.71875 -6.890625 C 7.207031 -7.128906 7.6875 -7.429688 8.15625 -7.796875 C 8.625 -8.171875 8.972656 -8.453125 9.203125 -8.640625 C 9.847656 -9.148438 10.578125 -9.71875 11.390625 -10.34375 C 12.210938 -10.976562 12.851562 -11.597656 13.3125 -12.203125 C 13.21875 -12.109375 13.054688 -12.0625 12.828125 -12.0625 C 12.785156 -12.15625 12.914062 -12.457031 13.21875 -12.96875 C 13.519531 -13.476562 13.910156 -14.054688 14.390625 -14.703125 C 14.878906 -15.359375 15.34375 -15.953125 15.78125 -16.484375 C 16.226562 -17.023438 16.519531 -17.34375 16.65625 -17.4375 C 16.894531 -17.613281 17.210938 -17.722656 17.609375 -17.765625 C 18.003906 -17.816406 18.222656 -17.613281 18.265625 -17.15625 Z M 6.0625 -25.9375 C 6.0625 -25.9375 5.988281 -26.039062 5.84375 -26.25 C 5.707031 -26.457031 5.640625 -26.582031 5.640625 -26.625 C 5.640625 -26.71875 5.628906 -26.953125 5.609375 -27.328125 C 5.585938 -27.703125 5.609375 -28.050781 5.671875 -28.375 C 5.742188 -28.695312 5.898438 -28.789062 6.140625 -28.65625 C 6.140625 -28.75 6.265625 -28.945312 6.515625 -29.25 C 6.773438 -29.550781 6.785156 -29.46875 6.546875 -29 C 7.148438 -29.789062 7.710938 -30.742188 8.234375 -31.859375 L 7.390625 -30.609375 C 7.710938 -31.253906 8.0625 -32.078125 8.4375 -33.078125 C 8.8125 -34.078125 9.019531 -34.691406 9.0625 -34.921875 C 9.0625 -34.972656 9.050781 -35.113281 9.03125 -35.34375 C 9.007812 -35.582031 9.019531 -35.722656 9.0625 -35.765625 C 8.320312 -36.046875 8.085938 -36.367188 8.359375 -36.734375 C 8.640625 -37.109375 8.941406 -37.410156 9.265625 -37.640625 C 9.128906 -37.640625 9.039062 -37.6875 9 -37.78125 C 8.851562 -37.925781 8.921875 -38.046875 9.203125 -38.140625 C 9.484375 -38.234375 9.671875 -38.300781 9.765625 -38.34375 C 10.273438 -38.570312 10.804688 -38.640625 11.359375 -38.546875 C 11.921875 -38.460938 12.429688 -38.300781 12.890625 -38.0625 C 13.265625 -37.832031 13.613281 -37.484375 13.9375 -37.015625 C 14.269531 -36.554688 14.503906 -36.117188 14.640625 -35.703125 C 14.773438 -35.234375 14.710938 -34.765625 14.453125 -34.296875 C 14.203125 -33.835938 13.914062 -33.46875 13.59375 -33.1875 C 13.457031 -33.050781 13.285156 -32.921875 13.078125 -32.796875 C 12.867188 -32.679688 12.671875 -32.554688 12.484375 -32.421875 C 12.296875 -32.191406 12.175781 -31.925781 12.125 -31.625 C 12.082031 -31.320312 11.96875 -31.050781 11.78125 -30.8125 C 11.6875 -30.625 11.546875 -30.484375 11.359375 -30.390625 C 11.171875 -30.304688 11.035156 -30.171875 10.953125 -29.984375 C 10.671875 -29.796875 10.644531 -29.585938 10.875 -29.359375 C 10.59375 -29.210938 10.359375 -29.046875 10.171875 -28.859375 C 9.847656 -28.304688 9.546875 -27.851562 9.265625 -27.5 C 8.992188 -27.15625 8.648438 -26.820312 8.234375 -26.5 C 8.597656 -26.726562 8.929688 -26.96875 9.234375 -27.21875 C 9.535156 -27.476562 9.847656 -27.84375 10.171875 -28.3125 C 10.734375 -29.007812 11.410156 -29.519531 12.203125 -29.84375 C 11.878906 -29.46875 11.625 -29.070312 11.4375 -28.65625 C 11.25 -28.238281 10.945312 -27.890625 10.53125 -27.609375 C 10.25 -27.472656 10.097656 -27.4375 10.078125 -27.5 C 10.054688 -27.570312 10.046875 -27.617188 10.046875 -27.640625 C 10.046875 -27.660156 9.878906 -27.535156 9.546875 -27.265625 C 9.546875 -27.265625 9.601562 -27.273438 9.71875 -27.296875 C 9.84375 -27.316406 9.859375 -27.28125 9.765625 -27.1875 C 9.429688 -26.90625 9.101562 -26.578125 8.78125 -26.203125 C 8.457031 -25.835938 8.085938 -25.5625 7.671875 -25.375 C 7.484375 -25.332031 7.296875 -25.265625 7.109375 -25.171875 C 6.921875 -25.078125 6.710938 -25.078125 6.484375 -25.171875 C 6.253906 -25.304688 6.148438 -25.441406 6.171875 -25.578125 C 6.191406 -25.722656 6.15625 -25.84375 6.0625 -25.9375 Z M 4.734375 -9.34375 C 4.785156 -9.4375 4.785156 -9.457031 4.734375 -9.40625 L 4.59375 -8.859375 L 4.734375 -9.265625 Z M 7.046875 -30.046875 L 7.328125 -30.46875 C 7.273438 -30.332031 7.210938 -30.226562 7.140625 -30.15625 C 7.078125 -30.082031 7.046875 -30.046875 7.046875 -30.046875 Z M 6.34375 -28.71875 C 6.300781 -28.675781 6.253906 -28.65625 6.203125 -28.65625 C 6.253906 -28.65625 6.28125 -28.640625 6.28125 -28.609375 C 6.28125 -28.585938 6.28125 -28.578125 6.28125 -28.578125 C 6.320312 -28.628906 6.34375 -28.675781 6.34375 -28.71875 Z M 6.34375 -28.71875 "/></g></g></g><g fill="#b4b4b4" fill-opacity="1"><g transform="translate(100.12235, 71.301843)"><g><path d="M 27.890625 -17.78125 C 28.441406 -18.332031 28.832031 -18.492188 29.0625 -18.265625 C 29.300781 -18.035156 29.429688 -17.648438 29.453125 -17.109375 C 29.472656 -16.578125 29.441406 -16.125 29.359375 -15.75 C 29.171875 -15.007812 28.863281 -14.28125 28.4375 -13.5625 C 28.019531 -12.84375 27.601562 -12.132812 27.1875 -11.4375 C 26.164062 -9.757812 25.164062 -8.046875 24.1875 -6.296875 C 23.21875 -4.554688 22.148438 -2.851562 20.984375 -1.1875 C 19.734375 0.625 18.421875 2.425781 17.046875 4.21875 C 15.671875 6.007812 14.171875 7.691406 12.546875 9.265625 C 11.660156 10.109375 10.660156 10.84375 9.546875 11.46875 C 8.429688 12.09375 7.304688 12.394531 6.171875 12.375 C 5.035156 12.351562 3.90625 11.851562 2.78125 10.875 C 1.8125 9.945312 1.128906 8.84375 0.734375 7.5625 C 0.335938 6.28125 0.113281 4.929688 0.0625 3.515625 C 0.0195312 2.097656 0.0195312 0.785156 0.0625 -0.421875 C 0.207031 -2.367188 0.5 -4.296875 0.9375 -6.203125 C 1.382812 -8.109375 1.835938 -9.992188 2.296875 -11.859375 C 2.347656 -11.941406 2.375 -12.285156 2.375 -12.890625 C 2.375 -13.492188 2.46875 -13.914062 2.65625 -14.15625 C 2.601562 -14.101562 2.578125 -13.972656 2.578125 -13.765625 C 2.578125 -13.554688 2.554688 -13.335938 2.515625 -13.109375 C 2.609375 -13.335938 2.6875 -13.578125 2.75 -13.828125 C 2.820312 -14.085938 2.90625 -14.335938 3 -14.578125 L 2.78125 -14.578125 C 2.695312 -15.265625 2.828125 -16.082031 3.171875 -17.03125 C 3.515625 -17.988281 3.78125 -18.796875 3.96875 -19.453125 C 4.207031 -20.242188 4.460938 -21.054688 4.734375 -21.890625 C 5.015625 -22.722656 5.296875 -23.535156 5.578125 -24.328125 C 6.085938 -25.816406 6.617188 -27.304688 7.171875 -28.796875 C 7.734375 -30.285156 8.25 -31.769531 8.71875 -33.25 C 9.175781 -34.738281 9.726562 -36.203125 10.375 -37.640625 C 11.03125 -39.085938 11.707031 -40.507812 12.40625 -41.90625 C 13.0625 -43.25 13.757812 -44.570312 14.5 -45.875 C 14.59375 -46.007812 14.78125 -46.34375 15.0625 -46.875 C 15.34375 -47.414062 15.644531 -47.941406 15.96875 -48.453125 C 16.289062 -48.960938 16.5 -49.195312 16.59375 -49.15625 L 16.03125 -47.96875 L 18.265625 -51.796875 L 18.203125 -51.734375 C 18.378906 -52.015625 18.570312 -52.375 18.78125 -52.8125 C 19 -53.25 19.195312 -53.5625 19.375 -53.75 L 20.984375 -55.921875 C 21.492188 -56.523438 22.050781 -57.171875 22.65625 -57.859375 C 23.257812 -58.554688 23.957031 -59.023438 24.75 -59.265625 C 25.769531 -59.585938 26.707031 -59.515625 27.5625 -59.046875 C 28.425781 -58.585938 29.132812 -57.914062 29.6875 -57.03125 C 30.25 -56.144531 30.601562 -55.238281 30.75 -54.3125 L 30.8125 -54.234375 L 30.8125 -53.890625 C 30.957031 -52.492188 30.816406 -51.03125 30.390625 -49.5 C 29.972656 -47.96875 29.4375 -46.46875 28.78125 -45 C 28.132812 -43.539062 27.488281 -42.207031 26.84375 -41 C 26.28125 -39.882812 25.6875 -38.707031 25.0625 -37.46875 C 24.4375 -36.238281 23.679688 -35.160156 22.796875 -34.234375 C 22.191406 -33.578125 21.703125 -32.890625 21.328125 -32.171875 C 20.960938 -31.453125 20.523438 -30.695312 20.015625 -29.90625 C 18.710938 -27.769531 17.335938 -25.65625 15.890625 -23.5625 C 14.453125 -21.46875 12.941406 -19.445312 11.359375 -17.5 C 10.992188 -17.03125 10.679688 -16.597656 10.421875 -16.203125 C 10.171875 -15.804688 9.953125 -15.285156 9.765625 -14.640625 C 9.578125 -13.992188 9.390625 -13.332031 9.203125 -12.65625 C 9.015625 -11.976562 8.828125 -11.289062 8.640625 -10.59375 C 8.453125 -9.894531 8.265625 -9.195312 8.078125 -8.5 C 7.898438 -7.800781 7.71875 -7.109375 7.53125 -6.421875 C 7.476562 -6.085938 7.335938 -5.570312 7.109375 -4.875 C 6.878906 -4.175781 6.785156 -3.78125 6.828125 -3.6875 C 6.640625 -2.90625 6.503906 -2.046875 6.421875 -1.109375 L 6.96875 -3.203125 C 7.15625 -2.921875 7.164062 -2.382812 7 -1.59375 C 6.84375 -0.8125 6.738281 -0.257812 6.6875 0.0625 C 6.550781 1.09375 6.484375 2.1875 6.484375 3.34375 C 6.484375 3.757812 6.503906 4.316406 6.546875 5.015625 C 6.597656 5.710938 6.75 6.351562 7 6.9375 C 7.257812 7.519531 7.671875 7.859375 8.234375 7.953125 C 9.015625 8.046875 9.800781 7.789062 10.59375 7.1875 C 11.382812 6.582031 12.101562 5.882812 12.75 5.09375 C 13.40625 4.300781 13.921875 3.671875 14.296875 3.203125 C 15.734375 1.484375 17.066406 -0.3125 18.296875 -2.1875 C 19.535156 -4.070312 20.734375 -5.945312 21.890625 -7.8125 C 22.546875 -8.78125 23.160156 -9.753906 23.734375 -10.734375 C 24.316406 -11.710938 24.910156 -12.710938 25.515625 -13.734375 C 25.890625 -14.378906 26.257812 -15.085938 26.625 -15.859375 C 27 -16.628906 27.421875 -17.269531 27.890625 -17.78125 Z M 19.171875 -42.734375 C 17.867188 -39.617188 16.691406 -36.4375 15.640625 -33.1875 C 14.597656 -29.9375 13.566406 -26.773438 12.546875 -23.703125 C 15.148438 -27.835938 17.765625 -32.101562 20.390625 -36.5 C 23.015625 -40.894531 25.117188 -45.414062 26.703125 -50.0625 C 26.097656 -48.382812 25.390625 -46.742188 24.578125 -45.140625 C 23.765625 -43.535156 22.960938 -41.96875 22.171875 -40.4375 C 21.703125 -39.550781 21.222656 -38.675781 20.734375 -37.8125 C 20.253906 -36.957031 19.757812 -36.085938 19.25 -35.203125 C 18.914062 -34.691406 18.503906 -34.078125 18.015625 -33.359375 C 17.535156 -32.640625 17.175781 -32 16.9375 -31.4375 C 17.21875 -32.375 17.707031 -33.328125 18.40625 -34.296875 C 19.101562 -35.273438 19.6875 -36.179688 20.15625 -37.015625 L 23.078125 -42.453125 C 23.910156 -44.128906 24.828125 -45.953125 25.828125 -47.921875 C 26.828125 -49.898438 27.351562 -51.867188 27.40625 -53.828125 L 27.40625 -53.890625 C 27.445312 -54.816406 27.316406 -55.316406 27.015625 -55.390625 C 26.710938 -55.460938 26.335938 -55.3125 25.890625 -54.9375 C 25.453125 -54.5625 25.046875 -54.128906 24.671875 -53.640625 C 24.304688 -53.160156 24.050781 -52.828125 23.90625 -52.640625 C 22.9375 -51.054688 22.078125 -49.425781 21.328125 -47.75 C 20.585938 -46.082031 19.867188 -44.410156 19.171875 -42.734375 Z M 16.9375 -47.625 C 16.570312 -46.875 16.210938 -46.148438 15.859375 -45.453125 C 15.515625 -44.753906 15.175781 -44.007812 14.84375 -43.21875 C 14.800781 -43.175781 14.78125 -43.085938 14.78125 -42.953125 C 15.570312 -44.335938 16.382812 -45.71875 17.21875 -47.09375 C 18.050781 -48.46875 18.84375 -49.875 19.59375 -51.3125 C 19.269531 -50.707031 18.835938 -50.101562 18.296875 -49.5 C 17.765625 -48.894531 17.3125 -48.269531 16.9375 -47.625 Z M 3.765625 -11.578125 C 3.804688 -11.617188 3.828125 -11.675781 3.828125 -11.75 C 3.828125 -11.820312 3.78125 -11.832031 3.6875 -11.78125 C 3.550781 -11.78125 3.398438 -11.46875 3.234375 -10.84375 C 3.078125 -10.21875 2.953125 -9.507812 2.859375 -8.71875 L 2.859375 -8.78125 C 2.628906 -7.570312 2.441406 -6.328125 2.296875 -5.046875 C 2.160156 -3.773438 2.046875 -2.507812 1.953125 -1.25 L 2.15625 -3.484375 L 2.15625 -3.28125 C 2.15625 -3.507812 2.175781 -3.738281 2.21875 -3.96875 C 2.269531 -4.207031 2.320312 -4.441406 2.375 -4.671875 C 2.601562 -5.742188 2.773438 -6.882812 2.890625 -8.09375 C 3.003906 -9.300781 3.269531 -10.390625 3.6875 -11.359375 C 3.6875 -11.359375 3.6875 -11.378906 3.6875 -11.421875 C 3.6875 -11.472656 3.710938 -11.523438 3.765625 -11.578125 Z M 3.765625 -11.578125 "/></g></g><g transform="translate(124.80137, 71.301843)"><g/></g></g><g fill="#b4b4b4" fill-opacity="1"><g transform="translate(144.321493, 71.301843)"><g><path d="M 44.40625 2.375 C 44.738281 2 45.039062 1.679688 45.3125 1.421875 C 45.59375 1.171875 45.800781 1.507812 45.9375 2.4375 C 45.988281 2.851562 45.96875 3.210938 45.875 3.515625 C 45.78125 3.816406 45.617188 4.15625 45.390625 4.53125 C 44.410156 6.0625 43.210938 7.59375 41.796875 9.125 C 40.378906 10.664062 38.691406 11.617188 36.734375 11.984375 C 35.992188 12.128906 35.273438 12.117188 34.578125 11.953125 C 33.878906 11.796875 33.207031 11.550781 32.5625 11.21875 C 32.46875 11.125 32.09375 10.832031 31.4375 10.34375 C 30.789062 9.863281 30.148438 9.378906 29.515625 8.890625 C 28.890625 8.398438 28.578125 8.109375 28.578125 8.015625 C 28.671875 8.015625 28.765625 8.039062 28.859375 8.09375 C 28.722656 7.945312 28.609375 7.875 28.515625 7.875 C 28.609375 7.96875 28.515625 7.929688 28.234375 7.765625 C 27.953125 7.609375 27.765625 7.503906 27.671875 7.453125 C 27.398438 7.222656 27.15625 6.992188 26.9375 6.765625 C 26.726562 6.535156 26.535156 6.300781 26.359375 6.0625 C 25.984375 5.601562 25.597656 5.175781 25.203125 4.78125 C 24.804688 4.382812 24.398438 4 23.984375 3.625 C 23.890625 3.53125 23.65625 3.273438 23.28125 2.859375 C 22.914062 2.441406 22.519531 1.953125 22.09375 1.390625 C 21.675781 0.835938 21.328125 0.34375 21.046875 -0.09375 C 20.773438 -0.539062 20.707031 -0.832031 20.84375 -0.96875 C 20.894531 -1.019531 20.960938 -0.988281 21.046875 -0.875 C 21.140625 -0.757812 21.210938 -0.722656 21.265625 -0.765625 L 20.359375 -1.875 L 20.359375 -1.75 C 20.304688 -1.695312 20.0625 -1.984375 19.625 -2.609375 C 19.1875 -3.242188 18.6875 -4.015625 18.125 -4.921875 C 17.570312 -5.828125 17.050781 -6.648438 16.5625 -7.390625 C 16.070312 -8.128906 15.78125 -8.570312 15.6875 -8.71875 C 15.363281 -9.269531 14.988281 -9.859375 14.5625 -10.484375 C 14.144531 -11.117188 13.847656 -11.757812 13.671875 -12.40625 C 13.578125 -12.644531 13.644531 -12.804688 13.875 -12.890625 C 13.820312 -13.171875 13.632812 -13.382812 13.3125 -13.53125 L 12.0625 -15.96875 C 11.738281 -14.945312 11.515625 -13.9375 11.390625 -12.9375 C 11.273438 -11.9375 11.035156 -10.925781 10.671875 -9.90625 C 10.203125 -8.414062 9.789062 -6.9375 9.4375 -5.46875 C 9.09375 -4.007812 8.734375 -2.535156 8.359375 -1.046875 L 7.53125 2.578125 C 7.4375 3.046875 7.363281 3.59375 7.3125 4.21875 C 7.269531 4.84375 7.132812 5.363281 6.90625 5.78125 C 6.582031 6.382812 6.148438 6.582031 5.609375 6.375 C 5.078125 6.164062 4.566406 5.78125 4.078125 5.21875 C 3.585938 4.664062 3.226562 4.226562 3 3.90625 C 2.300781 2.976562 1.925781 2 1.875 0.96875 C 1.832031 -0.0507812 1.953125 -1.082031 2.234375 -2.125 C 2.515625 -3.164062 2.769531 -4.175781 3 -5.15625 C 3.601562 -7.71875 4.367188 -10.320312 5.296875 -12.96875 C 5.671875 -13.988281 5.960938 -15.007812 6.171875 -16.03125 C 6.378906 -17.050781 6.597656 -18.078125 6.828125 -19.109375 C 7.617188 -21.753906 8.46875 -24.390625 9.375 -27.015625 C 10.28125 -29.640625 11.148438 -32.273438 11.984375 -34.921875 C 12.773438 -37.253906 13.578125 -39.601562 14.390625 -41.96875 C 15.203125 -44.34375 16.097656 -46.691406 17.078125 -49.015625 C 17.359375 -49.847656 17.753906 -50.800781 18.265625 -51.875 L 18.75 -53.0625 C 18.65625 -53.15625 18.609375 -53.242188 18.609375 -53.328125 C 18.941406 -53.890625 19.394531 -54.203125 19.96875 -54.265625 C 20.550781 -54.335938 21.164062 -54.269531 21.8125 -54.0625 C 22.46875 -53.851562 22.984375 -53.585938 23.359375 -53.265625 C 24.191406 -52.703125 24.582031 -52.15625 24.53125 -51.625 C 24.488281 -51.09375 24.269531 -50.535156 23.875 -49.953125 C 23.476562 -49.367188 23.144531 -48.753906 22.875 -48.109375 C 22.726562 -47.785156 22.65625 -47.472656 22.65625 -47.171875 C 22.65625 -46.867188 22.609375 -46.503906 22.515625 -46.078125 C 22.328125 -45.335938 22.054688 -44.609375 21.703125 -43.890625 C 21.359375 -43.171875 21.070312 -42.460938 20.84375 -41.765625 C 20.46875 -40.785156 20.109375 -39.804688 19.765625 -38.828125 C 19.421875 -37.859375 19.0625 -36.859375 18.6875 -35.828125 L 17.4375 -32.703125 C 17.195312 -32.140625 17.019531 -31.601562 16.90625 -31.09375 C 16.789062 -30.582031 16.6875 -30.023438 16.59375 -29.421875 C 16.40625 -28.347656 16.054688 -27.289062 15.546875 -26.25 C 15.035156 -25.207031 14.640625 -24.148438 14.359375 -23.078125 C 16.078125 -24.421875 17.726562 -25.765625 19.3125 -27.109375 C 20.894531 -28.460938 22.425781 -29.90625 23.90625 -31.4375 C 25.394531 -33.070312 26.929688 -34.644531 28.515625 -36.15625 C 30.097656 -37.664062 31.609375 -39.28125 33.046875 -41 C 34.390625 -42.664062 35.789062 -44.460938 37.25 -46.390625 C 38.71875 -48.328125 39.757812 -50.316406 40.375 -52.359375 C 40.457031 -52.734375 40.519531 -53.070312 40.5625 -53.375 C 40.613281 -53.675781 40.894531 -53.78125 41.40625 -53.6875 C 41.925781 -53.59375 42.378906 -53.265625 42.765625 -52.703125 C 43.160156 -52.148438 43.5 -51.546875 43.78125 -50.890625 C 44.0625 -50.242188 44.25 -49.6875 44.34375 -49.21875 L 44.34375 -49.078125 C 44.570312 -47.585938 44.375 -46.25 43.75 -45.0625 C 43.125 -43.882812 42.320312 -42.710938 41.34375 -41.546875 C 40.644531 -40.765625 39.96875 -39.960938 39.3125 -39.140625 C 38.664062 -38.328125 37.945312 -37.523438 37.15625 -36.734375 C 36.789062 -36.367188 36.5 -35.988281 36.28125 -35.59375 C 36.070312 -35.195312 35.804688 -34.789062 35.484375 -34.375 C 35.160156 -33.957031 34.773438 -33.5625 34.328125 -33.1875 C 33.890625 -32.8125 33.484375 -32.441406 33.109375 -32.078125 C 32.328125 -31.378906 31.550781 -30.644531 30.78125 -29.875 C 30.007812 -29.101562 29.226562 -28.367188 28.4375 -27.671875 C 27.882812 -27.210938 27.382812 -26.726562 26.9375 -26.21875 C 26.5 -25.707031 26.023438 -25.195312 25.515625 -24.6875 C 24.023438 -23.332031 22.394531 -22.050781 20.625 -20.84375 C 18.863281 -19.632812 17.054688 -18.566406 15.203125 -17.640625 C 15.992188 -16.378906 16.78125 -15.144531 17.5625 -13.9375 C 18.351562 -12.726562 19.21875 -11.546875 20.15625 -10.390625 C 19.875 -10.804688 19.5 -11.347656 19.03125 -12.015625 C 18.570312 -12.691406 18.15625 -13.332031 17.78125 -13.9375 C 18.332031 -13.195312 19.015625 -12.328125 19.828125 -11.328125 C 20.648438 -10.328125 21.476562 -9.316406 22.3125 -8.296875 C 23.144531 -7.273438 23.863281 -6.398438 24.46875 -5.671875 C 25.070312 -4.953125 25.445312 -4.503906 25.59375 -4.328125 C 26.519531 -3.484375 27.421875 -2.65625 28.296875 -1.84375 C 29.179688 -1.03125 30.066406 -0.179688 30.953125 0.703125 C 31.554688 1.304688 32.207031 1.953125 32.90625 2.640625 C 33.601562 3.335938 34.253906 3.898438 34.859375 4.328125 L 34.515625 3.90625 C 34.515625 3.851562 34.734375 3.921875 35.171875 4.109375 C 35.609375 4.296875 36.0625 4.492188 36.53125 4.703125 C 37 4.910156 37.28125 5.039062 37.375 5.09375 C 37.738281 5.1875 38.09375 5.273438 38.4375 5.359375 C 38.789062 5.453125 39.128906 5.476562 39.453125 5.4375 C 40.390625 5.34375 41.320312 4.96875 42.25 4.3125 C 43.175781 3.664062 43.894531 3.019531 44.40625 2.375 Z M 9.40625 -20.640625 L 9.765625 -22.171875 C 8.972656 -19.335938 8.144531 -16.5 7.28125 -13.65625 C 6.425781 -10.820312 5.671875 -7.988281 5.015625 -5.15625 C 5.335938 -6.226562 5.707031 -7.3125 6.125 -8.40625 C 6.550781 -9.5 6.925781 -10.601562 7.25 -11.71875 C 7.664062 -13.195312 8.035156 -14.65625 8.359375 -16.09375 C 8.691406 -17.539062 9.019531 -18.984375 9.34375 -20.421875 C 9.34375 -20.515625 9.363281 -20.585938 9.40625 -20.640625 Z M 22.453125 -7.59375 L 21.96875 -8.09375 C 22.195312 -7.757812 22.460938 -7.429688 22.765625 -7.109375 C 23.066406 -6.785156 23.359375 -6.460938 23.640625 -6.140625 Z M 17.015625 -14.84375 C 16.773438 -15.21875 16.65625 -15.429688 16.65625 -15.484375 Z M 17.359375 -14.359375 L 17.078125 -14.703125 Z M 17.359375 -14.359375 "/></g></g></g><g fill="#b4b4b4" fill-opacity="1"><g transform="translate(184.268035, 71.301843)"><g><path d="M 32.984375 -17.015625 C 33.023438 -16.597656 32.847656 -16.070312 32.453125 -15.4375 C 32.054688 -14.8125 31.742188 -14.3125 31.515625 -13.9375 C 31.046875 -13.101562 30.484375 -12.300781 29.828125 -11.53125 C 29.179688 -10.769531 28.535156 -10.015625 27.890625 -9.265625 C 27.234375 -8.578125 26.472656 -7.773438 25.609375 -6.859375 C 24.753906 -5.953125 23.828125 -5.160156 22.828125 -4.484375 C 21.828125 -3.816406 20.769531 -3.4375 19.65625 -3.34375 C 18.914062 -3.300781 18.171875 -3.453125 17.421875 -3.796875 C 16.679688 -4.148438 16.101562 -4.675781 15.6875 -5.375 C 15.21875 -6.25 15.019531 -7.1875 15.09375 -8.1875 C 15.164062 -9.1875 15.375 -10.175781 15.71875 -11.15625 C 16.070312 -12.132812 16.382812 -13.015625 16.65625 -13.796875 C 15.78125 -12.734375 14.898438 -11.65625 14.015625 -10.5625 C 13.128906 -9.46875 12.242188 -8.363281 11.359375 -7.25 C 11.222656 -7.113281 10.851562 -6.726562 10.25 -6.09375 C 9.644531 -5.46875 8.957031 -4.804688 8.1875 -4.109375 C 7.425781 -3.410156 6.726562 -2.851562 6.09375 -2.4375 C 5.46875 -2.019531 5.0625 -1.925781 4.875 -2.15625 C 4.875 -2.207031 4.976562 -2.28125 5.1875 -2.375 C 5.394531 -2.46875 5.476562 -2.535156 5.4375 -2.578125 C 5.113281 -2.390625 4.753906 -2.210938 4.359375 -2.046875 C 3.960938 -1.890625 3.578125 -1.8125 3.203125 -1.8125 C 3.253906 -1.769531 3.375 -1.75 3.5625 -1.75 C 3.601562 -1.601562 3.460938 -1.550781 3.140625 -1.59375 C 2.816406 -1.644531 2.476562 -1.738281 2.125 -1.875 C 1.78125 -2.019531 1.5625 -2.113281 1.46875 -2.15625 C 1.09375 -2.53125 0.800781 -2.972656 0.59375 -3.484375 C 0.382812 -3.992188 0.234375 -4.484375 0.140625 -4.953125 C -0.046875 -6.066406 -0.0703125 -7.179688 0.0625 -8.296875 C 0.207031 -9.410156 0.421875 -10.503906 0.703125 -11.578125 C 0.972656 -12.691406 1.269531 -13.789062 1.59375 -14.875 C 1.925781 -15.96875 2.320312 -17.050781 2.78125 -18.125 C 3.019531 -18.6875 3.320312 -19.148438 3.6875 -19.515625 C 4.0625 -19.890625 4.363281 -20.3125 4.59375 -20.78125 C 4.96875 -21.65625 5.421875 -22.59375 5.953125 -23.59375 C 6.492188 -24.59375 7.132812 -25.394531 7.875 -26 C 8.53125 -26.5625 9.332031 -26.816406 10.28125 -26.765625 C 11.238281 -26.722656 12.019531 -26.445312 12.625 -25.9375 C 13.269531 -25.46875 13.5 -25.070312 13.3125 -24.75 C 13.125 -24.425781 12.894531 -24.007812 12.625 -23.5 C 12.757812 -23.726562 12.894531 -23.863281 13.03125 -23.90625 C 13.082031 -23.90625 12.96875 -23.625 12.6875 -23.0625 C 12.40625 -22.507812 12.113281 -21.953125 11.8125 -21.390625 C 11.507812 -20.835938 11.289062 -20.5625 11.15625 -20.5625 C 11.15625 -20.5625 11.203125 -20.703125 11.296875 -20.984375 C 11.390625 -21.265625 11.484375 -21.5 11.578125 -21.6875 C 11.109375 -20.894531 10.664062 -20.078125 10.25 -19.234375 C 9.832031 -18.398438 9.4375 -17.566406 9.0625 -16.734375 C 9.195312 -16.921875 9.335938 -17.015625 9.484375 -17.015625 C 9.429688 -17.015625 9.265625 -16.6875 8.984375 -16.03125 C 8.710938 -15.382812 8.398438 -14.617188 8.046875 -13.734375 C 7.703125 -12.847656 7.390625 -12.046875 7.109375 -11.328125 C 6.828125 -10.609375 6.664062 -10.179688 6.625 -10.046875 C 6.53125 -9.710938 6.390625 -9.21875 6.203125 -8.5625 C 6.015625 -7.914062 5.941406 -7.375 5.984375 -6.9375 C 6.035156 -6.5 6.363281 -6.367188 6.96875 -6.546875 C 7.988281 -6.828125 8.960938 -7.515625 9.890625 -8.609375 C 10.828125 -9.703125 11.597656 -10.617188 12.203125 -11.359375 C 13.035156 -12.296875 13.8125 -13.273438 14.53125 -14.296875 C 15.25 -15.316406 15.984375 -16.335938 16.734375 -17.359375 C 17.242188 -18.148438 17.800781 -19.007812 18.40625 -19.9375 C 19.007812 -20.863281 19.738281 -21.601562 20.59375 -22.15625 C 21.457031 -22.71875 22.472656 -22.835938 23.640625 -22.515625 C 24.703125 -22.234375 25.234375 -21.722656 25.234375 -20.984375 C 25.234375 -20.242188 25.007812 -19.441406 24.5625 -18.578125 C 24.125 -17.722656 23.742188 -16.96875 23.421875 -16.3125 C 23.660156 -16.539062 23.78125 -16.632812 23.78125 -16.59375 C 23.914062 -16.457031 23.890625 -16.117188 23.703125 -15.578125 C 23.515625 -15.046875 23.304688 -14.5 23.078125 -13.9375 C 22.847656 -13.382812 22.6875 -12.992188 22.59375 -12.765625 C 22.40625 -12.109375 22.191406 -11.40625 21.953125 -10.65625 C 21.722656 -9.914062 21.585938 -9.175781 21.546875 -8.4375 C 21.492188 -7.601562 21.59375 -7.226562 21.84375 -7.3125 C 22.101562 -7.40625 22.515625 -7.664062 23.078125 -8.09375 C 24.285156 -9.019531 25.390625 -10.050781 26.390625 -11.1875 C 27.390625 -12.320312 28.398438 -13.425781 29.421875 -14.5 C 29.460938 -14.550781 29.65625 -14.757812 30 -15.125 C 30.351562 -15.5 30.75 -15.894531 31.1875 -16.3125 C 31.632812 -16.726562 32.03125 -17.03125 32.375 -17.21875 C 32.726562 -17.40625 32.929688 -17.335938 32.984375 -17.015625 Z M 22.375 -15.609375 C 22.613281 -16.359375 22.894531 -17.09375 23.21875 -17.8125 C 23.539062 -18.53125 23.84375 -19.265625 24.125 -20.015625 C 23.894531 -19.453125 23.566406 -18.832031 23.140625 -18.15625 C 22.722656 -17.488281 22.363281 -16.828125 22.0625 -16.171875 C 21.757812 -15.523438 21.703125 -14.898438 21.890625 -14.296875 C 21.890625 -14.203125 21.867188 -14.128906 21.828125 -14.078125 C 21.921875 -14.171875 21.96875 -14.242188 21.96875 -14.296875 C 22.050781 -14.484375 22.128906 -14.703125 22.203125 -14.953125 C 22.273438 -15.210938 22.332031 -15.429688 22.375 -15.609375 Z M 5.78125 -6.625 C 5.738281 -6.945312 5.914062 -7.804688 6.3125 -9.203125 C 6.707031 -10.597656 7.132812 -11.96875 7.59375 -13.3125 C 7.226562 -12.382812 6.785156 -11.289062 6.265625 -10.03125 C 5.753906 -8.78125 5.59375 -7.644531 5.78125 -6.625 Z M 16.65625 -13.453125 C 16.75 -13.734375 16.84375 -13.941406 16.9375 -14.078125 C 16.75 -13.941406 16.65625 -13.734375 16.65625 -13.453125 Z M 16.65625 -13.453125 "/></g></g></g><g fill="#b4b4b4" fill-opacity="1"><g transform="translate(212.15392, 71.301843)"><g><path d="M 42.390625 -16.734375 C 42.617188 -15.847656 42.394531 -14.878906 41.71875 -13.828125 C 41.050781 -12.785156 40.484375 -11.941406 40.015625 -11.296875 C 39.128906 -10.035156 38.242188 -8.773438 37.359375 -7.515625 C 36.484375 -6.265625 35.554688 -5.035156 34.578125 -3.828125 C 34.160156 -3.273438 33.613281 -2.601562 32.9375 -1.8125 C 32.269531 -1.019531 31.550781 -0.320312 30.78125 0.28125 C 30.007812 0.882812 29.207031 1.207031 28.375 1.25 C 28.238281 1.25 27.890625 1.164062 27.328125 1 C 26.773438 0.84375 26.253906 0.644531 25.765625 0.40625 C 25.273438 0.175781 25.050781 -0.0234375 25.09375 -0.203125 L 25.171875 -0.140625 C 25.117188 -0.179688 25.082031 -0.238281 25.0625 -0.3125 C 25.039062 -0.382812 25.003906 -0.441406 24.953125 -0.484375 C 24.953125 -0.441406 24.789062 -0.582031 24.46875 -0.90625 C 24.144531 -1.226562 23.9375 -1.484375 23.84375 -1.671875 C 23.65625 -2.046875 23.503906 -2.453125 23.390625 -2.890625 C 23.273438 -3.335938 23.171875 -3.769531 23.078125 -4.1875 C 22.984375 -4.882812 22.925781 -5.566406 22.90625 -6.234375 C 22.882812 -6.910156 22.875 -7.578125 22.875 -8.234375 C 22.875 -9.671875 23.101562 -11.0625 23.5625 -12.40625 C 23.613281 -12.5 23.742188 -12.894531 23.953125 -13.59375 C 24.160156 -14.289062 24.398438 -14.960938 24.671875 -15.609375 C 24.953125 -16.265625 25.164062 -16.566406 25.3125 -16.515625 C 25.351562 -16.515625 25.335938 -16.421875 25.265625 -16.234375 C 25.203125 -16.054688 25.191406 -15.941406 25.234375 -15.890625 C 25.328125 -16.265625 25.441406 -16.625 25.578125 -16.96875 C 25.722656 -17.320312 25.863281 -17.6875 26 -18.0625 C 25.90625 -17.875 25.8125 -17.734375 25.71875 -17.640625 C 25.71875 -17.640625 25.8125 -17.894531 26 -18.40625 C 26.1875 -18.914062 26.421875 -19.503906 26.703125 -20.171875 C 26.984375 -20.847656 27.238281 -21.476562 27.46875 -22.0625 C 27.695312 -22.644531 27.859375 -23.03125 27.953125 -23.21875 C 26.796875 -22.144531 25.832031 -20.921875 25.0625 -19.546875 C 24.289062 -18.179688 23.328125 -16.941406 22.171875 -15.828125 C 21.429688 -15.078125 20.769531 -14.097656 20.1875 -12.890625 C 19.601562 -11.679688 19.007812 -10.59375 18.40625 -9.625 C 18.082031 -9.0625 17.742188 -8.488281 17.390625 -7.90625 C 17.046875 -7.332031 16.628906 -6.960938 16.140625 -6.796875 C 15.648438 -6.628906 15.035156 -6.894531 14.296875 -7.59375 C 13.691406 -8.101562 13.316406 -8.828125 13.171875 -9.765625 C 13.128906 -10.222656 13.175781 -10.671875 13.3125 -11.109375 C 13.457031 -11.554688 13.578125 -11.988281 13.671875 -12.40625 C 13.753906 -12.78125 13.773438 -13.082031 13.734375 -13.3125 C 13.691406 -13.550781 13.691406 -13.878906 13.734375 -14.296875 C 13.867188 -15.546875 14.25 -16.785156 14.875 -18.015625 C 15.507812 -19.253906 16.054688 -20.453125 16.515625 -21.609375 C 16.566406 -21.796875 16.707031 -22.15625 16.9375 -22.6875 C 17.175781 -23.226562 17.421875 -23.800781 17.671875 -24.40625 C 17.929688 -25.007812 18.09375 -25.539062 18.15625 -26 C 18.226562 -26.46875 18.125 -26.703125 17.84375 -26.703125 C 17.800781 -26.742188 17.582031 -26.507812 17.1875 -26 C 16.789062 -25.488281 16.546875 -25.1875 16.453125 -25.09375 C 16.035156 -24.632812 15.628906 -24.132812 15.234375 -23.59375 C 14.835938 -23.0625 14.453125 -22.539062 14.078125 -22.03125 C 12.921875 -20.257812 11.921875 -18.476562 11.078125 -16.6875 C 10.242188 -14.90625 9.335938 -13.082031 8.359375 -11.21875 C 7.992188 -10.476562 7.644531 -9.75 7.3125 -9.03125 C 6.988281 -8.3125 6.644531 -7.601562 6.28125 -6.90625 C 6.132812 -6.582031 5.957031 -6.253906 5.75 -5.921875 C 5.539062 -5.597656 5.390625 -5.25 5.296875 -4.875 C 5.296875 -4.78125 5.285156 -4.628906 5.265625 -4.421875 C 5.242188 -4.210938 5.207031 -4.0625 5.15625 -3.96875 C 4.925781 -3.550781 4.53125 -3.421875 3.96875 -3.578125 C 3.414062 -3.742188 2.847656 -4.015625 2.265625 -4.390625 C 1.679688 -4.765625 1.273438 -5.09375 1.046875 -5.375 C 0.304688 -6.25 -0.03125 -7.101562 0.03125 -7.9375 C 0.101562 -8.78125 0.113281 -9.691406 0.0625 -10.671875 C 0.0195312 -11.972656 0.179688 -13.25 0.546875 -14.5 C 0.921875 -15.757812 1.320312 -16.992188 1.75 -18.203125 C 1.925781 -18.804688 2.128906 -19.394531 2.359375 -19.96875 C 2.597656 -20.550781 2.859375 -21.144531 3.140625 -21.75 C 3.328125 -22.070312 3.535156 -22.382812 3.765625 -22.6875 C 3.992188 -22.988281 4.179688 -23.304688 4.328125 -23.640625 C 4.421875 -23.816406 4.453125 -23.988281 4.421875 -24.15625 C 4.398438 -24.320312 4.550781 -24.472656 4.875 -24.609375 C 5.113281 -24.703125 5.394531 -24.675781 5.71875 -24.53125 C 6.039062 -24.394531 6.296875 -24.234375 6.484375 -24.046875 C 6.765625 -23.816406 6.992188 -23.515625 7.171875 -23.140625 C 7.359375 -22.773438 7.546875 -22.472656 7.734375 -22.234375 C 7.921875 -22.003906 8.128906 -21.769531 8.359375 -21.53125 C 8.597656 -21.300781 8.644531 -20.929688 8.5 -20.421875 C 8.5 -20.378906 8.472656 -20.320312 8.421875 -20.25 C 8.378906 -20.1875 8.335938 -20.109375 8.296875 -20.015625 C 8.109375 -19.679688 7.863281 -19.351562 7.5625 -19.03125 C 7.257812 -18.707031 6.992188 -18.359375 6.765625 -17.984375 C 6.671875 -17.847656 6.550781 -17.6875 6.40625 -17.5 C 6.269531 -17.3125 6.179688 -17.125 6.140625 -16.9375 C 6.085938 -16.707031 6.070312 -16.507812 6.09375 -16.34375 C 6.125 -16.1875 6.09375 -15.988281 6 -15.75 C 5.90625 -15.289062 5.738281 -14.835938 5.5 -14.390625 C 5.269531 -13.953125 5.109375 -13.476562 5.015625 -12.96875 C 4.972656 -12.644531 4.890625 -12.304688 4.765625 -11.953125 C 4.648438 -11.609375 4.59375 -11.273438 4.59375 -10.953125 C 4.59375 -10.617188 4.640625 -10.289062 4.734375 -9.96875 C 4.828125 -9.644531 4.828125 -9.296875 4.734375 -8.921875 C 5.242188 -9.753906 5.671875 -10.671875 6.015625 -11.671875 C 6.367188 -12.671875 6.78125 -13.613281 7.25 -14.5 C 7.8125 -15.613281 8.378906 -16.75 8.953125 -17.90625 C 9.535156 -19.070312 10.15625 -20.191406 10.8125 -21.265625 C 11.363281 -22.148438 11.953125 -23.019531 12.578125 -23.875 C 13.210938 -24.738281 13.804688 -25.613281 14.359375 -26.5 C 14.828125 -27.238281 15.429688 -28.023438 16.171875 -28.859375 C 16.921875 -29.703125 17.734375 -30.171875 18.609375 -30.265625 C 19.453125 -30.398438 20.195312 -30.195312 20.84375 -29.65625 C 21.5 -29.125 21.988281 -28.453125 22.3125 -27.640625 C 22.632812 -26.828125 22.703125 -26.050781 22.515625 -25.3125 C 22.285156 -24.425781 21.945312 -23.550781 21.5 -22.6875 C 21.0625 -21.832031 20.679688 -20.988281 20.359375 -20.15625 C 19.941406 -18.945312 19.554688 -17.710938 19.203125 -16.453125 C 18.859375 -15.203125 18.5 -13.972656 18.125 -12.765625 C 18.539062 -13.640625 19.003906 -14.492188 19.515625 -15.328125 C 20.023438 -16.171875 20.5625 -17.035156 21.125 -17.921875 L 19.734375 -16.03125 C 19.734375 -16.175781 20.019531 -16.65625 20.59375 -17.46875 C 21.175781 -18.28125 21.863281 -19.21875 22.65625 -20.28125 C 23.445312 -21.351562 24.175781 -22.316406 24.84375 -23.171875 C 25.519531 -24.035156 25.953125 -24.5625 26.140625 -24.75 C 26.796875 -25.351562 27.597656 -25.882812 28.546875 -26.34375 C 29.503906 -26.8125 30.410156 -26.972656 31.265625 -26.828125 C 32.128906 -26.691406 32.722656 -25.976562 33.046875 -24.6875 C 33.515625 -23.007812 33.445312 -21.25 32.84375 -19.40625 C 32.238281 -17.570312 31.632812 -15.914062 31.03125 -14.4375 C 30.46875 -13.132812 29.847656 -11.738281 29.171875 -10.25 C 28.503906 -8.757812 28.03125 -7.34375 27.75 -6 C 27.84375 -6.1875 27.9375 -6.328125 28.03125 -6.421875 C 28.03125 -6.421875 27.992188 -6.140625 27.921875 -5.578125 C 27.847656 -5.015625 27.820312 -4.441406 27.84375 -3.859375 C 27.875 -3.285156 27.984375 -2.972656 28.171875 -2.921875 C 28.628906 -2.828125 29.179688 -3.082031 29.828125 -3.6875 C 30.484375 -4.289062 31.113281 -4.960938 31.71875 -5.703125 C 32.320312 -6.453125 32.742188 -6.96875 32.984375 -7.25 C 33.910156 -8.320312 34.835938 -9.398438 35.765625 -10.484375 C 36.691406 -11.578125 37.597656 -12.660156 38.484375 -13.734375 C 38.578125 -13.828125 38.796875 -14.101562 39.140625 -14.5625 C 39.492188 -15.03125 39.898438 -15.507812 40.359375 -16 C 40.828125 -16.488281 41.25 -16.835938 41.625 -17.046875 C 42 -17.253906 42.253906 -17.171875 42.390625 -16.796875 C 42.429688 -16.753906 42.441406 -16.734375 42.421875 -16.734375 C 42.398438 -16.734375 42.390625 -16.734375 42.390625 -16.734375 Z M 17.359375 -21.328125 L 17.4375 -21.40625 L 17.4375 -21.328125 C 17.570312 -21.703125 17.765625 -22.238281 18.015625 -22.9375 C 18.273438 -23.632812 18.484375 -24.34375 18.640625 -25.0625 C 18.804688 -25.78125 18.820312 -26.300781 18.6875 -26.625 C 18.78125 -26.257812 18.695312 -25.632812 18.4375 -24.75 C 18.1875 -23.863281 17.910156 -23.003906 17.609375 -22.171875 C 17.304688 -21.335938 17.109375 -20.828125 17.015625 -20.640625 C 16.679688 -19.847656 16.316406 -19.046875 15.921875 -18.234375 C 15.535156 -17.421875 15.203125 -16.59375 14.921875 -15.75 C 14.691406 -15.050781 14.46875 -14.257812 14.25 -13.375 C 14.039062 -12.5 13.9375 -11.664062 13.9375 -10.875 C 14.03125 -11.664062 14.21875 -12.457031 14.5 -13.25 C 14.78125 -14.039062 15.0625 -14.785156 15.34375 -15.484375 C 15.707031 -16.410156 16.015625 -17.359375 16.265625 -18.328125 C 16.523438 -19.304688 16.867188 -20.238281 17.296875 -21.125 C 17.296875 -21.125 17.304688 -21.144531 17.328125 -21.1875 C 17.347656 -21.238281 17.382812 -21.285156 17.4375 -21.328125 Z M 17.359375 -21.328125 "/></g></g></g><g fill="#b4b4b4" fill-opacity="1"><g transform="translate(249.451294, 71.301843)"><g><path d="M 35.484375 -16.796875 C 35.578125 -16.003906 35.34375 -15.210938 34.78125 -14.421875 C 34.226562 -13.640625 33.8125 -12.921875 33.53125 -12.265625 C 33.070312 -11.242188 32.582031 -10.242188 32.0625 -9.265625 C 31.550781 -8.296875 31.019531 -7.347656 30.46875 -6.421875 C 29.8125 -5.390625 29.144531 -4.375 28.46875 -3.375 C 27.800781 -2.375 27.070312 -1.410156 26.28125 -0.484375 C 25.675781 0.304688 24.941406 1.117188 24.078125 1.953125 C 23.222656 2.785156 22.257812 3.296875 21.1875 3.484375 C 20.03125 3.671875 19 3.367188 18.09375 2.578125 C 17.1875 1.785156 16.546875 0.878906 16.171875 -0.140625 C 15.335938 -2.179688 15.101562 -4.257812 15.46875 -6.375 C 15.84375 -8.488281 16.332031 -10.546875 16.9375 -12.546875 C 16.9375 -12.546875 16.9375 -12.671875 16.9375 -12.921875 C 16.9375 -13.179688 16.960938 -13.429688 17.015625 -13.671875 C 16.679688 -13.148438 16.296875 -12.597656 15.859375 -12.015625 C 15.421875 -11.441406 15.035156 -10.898438 14.703125 -10.390625 C 14.285156 -9.734375 13.898438 -9.078125 13.546875 -8.421875 C 13.203125 -7.773438 12.800781 -7.128906 12.34375 -6.484375 C 12.25 -6.347656 11.875 -5.894531 11.21875 -5.125 C 10.570312 -4.351562 9.84375 -3.523438 9.03125 -2.640625 C 8.21875 -1.765625 7.460938 -1.054688 6.765625 -0.515625 C 6.066406 0.015625 5.625 0.140625 5.4375 -0.140625 C 5.4375 -0.140625 5.578125 -0.207031 5.859375 -0.34375 C 6.140625 -0.488281 6.253906 -0.582031 6.203125 -0.625 C 5.316406 -0.0195312 4.34375 0.117188 3.28125 -0.203125 C 3.507812 -0.0664062 3.601562 0 3.5625 0 C 3.039062 0.0390625 2.5625 -0.144531 2.125 -0.5625 C 1.6875 -0.976562 1.316406 -1.460938 1.015625 -2.015625 C 0.710938 -2.578125 0.488281 -3.046875 0.34375 -3.421875 C 0.0703125 -4.390625 -0.0507812 -5.394531 -0.03125 -6.4375 C -0.0078125 -7.488281 0.09375 -8.503906 0.28125 -9.484375 C 0.65625 -11.523438 1.257812 -13.59375 2.09375 -15.6875 C 2.925781 -17.78125 3.925781 -19.6875 5.09375 -21.40625 C 5.414062 -21.820312 5.738281 -22.25 6.0625 -22.6875 C 6.382812 -23.132812 6.78125 -23.519531 7.25 -23.84375 C 7.53125 -24.070312 7.796875 -24.242188 8.046875 -24.359375 C 8.304688 -24.484375 8.597656 -24.632812 8.921875 -24.8125 C 9.429688 -25.28125 9.953125 -25.675781 10.484375 -26 C 11.023438 -26.332031 11.664062 -26.5 12.40625 -26.5 C 13.570312 -26.5 14.515625 -26.132812 15.234375 -25.40625 C 15.953125 -24.6875 16.519531 -23.816406 16.9375 -22.796875 C 17.351562 -21.773438 17.679688 -20.820312 17.921875 -19.9375 C 18.472656 -20.6875 19.15625 -21.394531 19.96875 -22.0625 C 20.78125 -22.738281 21.640625 -23.132812 22.546875 -23.25 C 23.453125 -23.363281 24.328125 -22.890625 25.171875 -21.828125 C 25.867188 -20.984375 26.085938 -20.222656 25.828125 -19.546875 C 25.578125 -18.878906 25.265625 -18.148438 24.890625 -17.359375 C 24.234375 -16.148438 23.648438 -14.835938 23.140625 -13.421875 C 22.628906 -12.003906 22.238281 -10.664062 21.96875 -9.40625 C 22.007812 -9.5 22.078125 -9.734375 22.171875 -10.109375 C 22.265625 -10.484375 22.378906 -10.691406 22.515625 -10.734375 C 22.609375 -10.785156 22.582031 -10.445312 22.4375 -9.71875 C 22.300781 -9 22.117188 -8.128906 21.890625 -7.109375 C 21.660156 -6.085938 21.484375 -5.085938 21.359375 -4.109375 C 21.242188 -3.140625 21.269531 -2.375 21.4375 -1.8125 C 21.601562 -1.25 21.972656 -1.097656 22.546875 -1.359375 C 23.128906 -1.617188 24.023438 -2.488281 25.234375 -3.96875 C 26.304688 -5.320312 27.328125 -6.707031 28.296875 -8.125 C 29.273438 -9.539062 30.234375 -10.96875 31.171875 -12.40625 C 31.585938 -13.0625 32.003906 -13.738281 32.421875 -14.4375 C 32.835938 -15.132812 33.28125 -15.804688 33.75 -16.453125 C 33.882812 -16.640625 34.09375 -16.859375 34.375 -17.109375 C 34.65625 -17.367188 34.910156 -17.507812 35.140625 -17.53125 C 35.367188 -17.550781 35.484375 -17.304688 35.484375 -16.796875 Z M 15.484375 -16.3125 C 15.660156 -16.59375 15.757812 -16.78125 15.78125 -16.875 C 15.8125 -16.96875 15.828125 -17.15625 15.828125 -17.4375 C 15.828125 -17.613281 15.707031 -18.0625 15.46875 -18.78125 C 15.238281 -19.507812 15.039062 -20.222656 14.875 -20.921875 C 14.71875 -21.617188 14.6875 -22.007812 14.78125 -22.09375 C 14.820312 -22.144531 14.898438 -21.992188 15.015625 -21.640625 C 15.140625 -21.296875 15.257812 -20.945312 15.375 -20.59375 C 15.488281 -20.25 15.546875 -20.054688 15.546875 -20.015625 C 15.503906 -20.285156 15.421875 -20.6875 15.296875 -21.21875 C 15.179688 -21.757812 15.007812 -22.257812 14.78125 -22.71875 C 14.550781 -23.1875 14.222656 -23.421875 13.796875 -23.421875 C 13.054688 -23.421875 12.359375 -23.046875 11.703125 -22.296875 C 11.054688 -21.554688 10.507812 -20.722656 10.0625 -19.796875 C 9.625 -18.867188 9.269531 -18.125 9 -17.5625 C 8.300781 -15.988281 7.660156 -14.375 7.078125 -12.71875 C 6.492188 -11.070312 6.0625 -9.390625 5.78125 -7.671875 C 5.832031 -7.898438 6.007812 -8.503906 6.3125 -9.484375 C 6.613281 -10.460938 6.992188 -11.613281 7.453125 -12.9375 C 7.921875 -14.257812 8.398438 -15.554688 8.890625 -16.828125 C 9.378906 -18.109375 9.84375 -19.164062 10.28125 -20 C 10.726562 -20.84375 11.066406 -21.265625 11.296875 -21.265625 C 11.109375 -21.210938 10.828125 -20.816406 10.453125 -20.078125 C 10.085938 -19.335938 9.679688 -18.40625 9.234375 -17.28125 C 8.796875 -16.164062 8.367188 -15.039062 7.953125 -13.90625 C 7.535156 -12.769531 7.1875 -11.769531 6.90625 -10.90625 C 6.625 -10.050781 6.460938 -9.53125 6.421875 -9.34375 C 6.367188 -9.15625 6.25 -8.710938 6.0625 -8.015625 C 5.875 -7.316406 5.769531 -6.640625 5.75 -5.984375 C 5.726562 -5.335938 5.878906 -4.945312 6.203125 -4.8125 C 6.429688 -4.757812 6.742188 -4.894531 7.140625 -5.21875 C 7.535156 -5.550781 7.90625 -5.9375 8.25 -6.375 C 8.601562 -6.820312 8.828125 -7.113281 8.921875 -7.25 C 10.273438 -8.875 11.53125 -10.546875 12.6875 -12.265625 L 14.5 -14.84375 C 14.632812 -15.082031 14.785156 -15.328125 14.953125 -15.578125 C 15.117188 -15.835938 15.296875 -16.082031 15.484375 -16.3125 Z M 17.078125 -12.890625 L 17.703125 -14.578125 L 17.359375 -14.078125 C 17.316406 -13.984375 17.257812 -13.757812 17.1875 -13.40625 C 17.113281 -13.0625 17.078125 -12.890625 17.078125 -12.890625 Z M 16.03125 -17.21875 C 16.21875 -17.40625 16.21875 -17.640625 16.03125 -17.921875 Z M 16.03125 -17.21875 "/></g></g><g transform="translate(279.846923, 71.301843)"><g><path d="M 28.578125 -16.9375 C 28.671875 -16.476562 28.601562 -15.96875 28.375 -15.40625 C 28.144531 -14.851562 27.910156 -14.363281 27.671875 -13.9375 C 27.398438 -13.332031 27.085938 -12.75 26.734375 -12.1875 C 26.390625 -11.632812 26.03125 -11.082031 25.65625 -10.53125 C 24.863281 -9.363281 24.035156 -8.1875 23.171875 -7 C 22.316406 -5.820312 21.472656 -4.628906 20.640625 -3.421875 C 19.796875 -2.253906 18.910156 -1.113281 17.984375 0 C 17.054688 1.113281 16.035156 2.132812 14.921875 3.0625 C 14.773438 3.15625 14.398438 3.429688 13.796875 3.890625 C 13.191406 4.359375 12.609375 4.800781 12.046875 5.21875 C 11.492188 5.644531 11.171875 5.859375 11.078125 5.859375 C 11.078125 5.804688 11.125 5.734375 11.21875 5.640625 L 10.734375 5.859375 C 10.921875 5.804688 10.789062 5.929688 10.34375 6.234375 C 9.90625 6.535156 9.59375 6.734375 9.40625 6.828125 C 8.4375 7.015625 7.484375 6.804688 6.546875 6.203125 C 6.085938 5.921875 5.726562 5.570312 5.46875 5.15625 C 5.21875 4.738281 4.972656 4.296875 4.734375 3.828125 C 4.410156 3.046875 4.210938 2.28125 4.140625 1.53125 C 4.078125 0.789062 4.113281 0 4.25 -0.84375 C 4.300781 -0.976562 4.414062 -1.394531 4.59375 -2.09375 C 4.78125 -2.789062 4.988281 -3.488281 5.21875 -4.1875 C 5.457031 -4.882812 5.644531 -5.207031 5.78125 -5.15625 C 5.875 -5.15625 5.875 -5.0625 5.78125 -4.875 C 5.6875 -4.6875 5.664062 -4.570312 5.71875 -4.53125 L 6.203125 -6.28125 C 6.160156 -6.28125 6.3125 -6.6875 6.65625 -7.5 C 7.007812 -8.3125 7.425781 -9.25 7.90625 -10.3125 C 8.394531 -11.382812 8.847656 -12.335938 9.265625 -13.171875 C 9.691406 -14.015625 9.953125 -14.503906 10.046875 -14.640625 C 9.015625 -14.453125 7.90625 -14.425781 6.71875 -14.5625 C 5.539062 -14.707031 4.578125 -15.222656 3.828125 -16.109375 C 3.648438 -16.378906 3.5625 -16.644531 3.5625 -16.90625 C 3.5625 -17.164062 3.515625 -17.382812 3.421875 -17.5625 C 3.328125 -17.84375 3.21875 -18.078125 3.09375 -18.265625 C 2.976562 -18.453125 2.875 -18.660156 2.78125 -18.890625 C 2.601562 -19.734375 2.6875 -20.617188 3.03125 -21.546875 C 3.382812 -22.472656 3.894531 -23.285156 4.5625 -23.984375 C 5.238281 -24.679688 6.003906 -25.125 6.859375 -25.3125 C 7.722656 -25.5 8.570312 -25.3125 9.40625 -24.75 L 9.265625 -24.953125 C 9.316406 -25.191406 9.476562 -25.132812 9.75 -24.78125 C 10.03125 -24.4375 10.195312 -24.171875 10.25 -23.984375 C 10.25 -23.890625 10.203125 -23.664062 10.109375 -23.3125 C 10.015625 -22.96875 9.894531 -22.632812 9.75 -22.3125 C 9.613281 -21.988281 9.476562 -21.847656 9.34375 -21.890625 C 9.289062 -21.890625 9.347656 -22.097656 9.515625 -22.515625 C 9.679688 -22.929688 9.765625 -23.164062 9.765625 -23.21875 C 9.523438 -22.5625 9.140625 -21.875 8.609375 -21.15625 C 8.078125 -20.4375 7.765625 -19.726562 7.671875 -19.03125 C 7.617188 -18.519531 7.707031 -18.207031 7.9375 -18.09375 C 8.175781 -17.976562 8.53125 -17.875 9 -17.78125 C 9.644531 -17.59375 10.441406 -17.5 11.390625 -17.5 C 12.347656 -17.5 13.242188 -17.382812 14.078125 -17.15625 C 13.523438 -17.34375 12.945312 -17.46875 12.34375 -17.53125 C 11.738281 -17.601562 11.203125 -17.660156 10.734375 -17.703125 C 10.734375 -17.703125 10.722656 -17.703125 10.703125 -17.703125 C 10.679688 -17.703125 10.671875 -17.726562 10.671875 -17.78125 C 11.179688 -17.726562 11.703125 -17.675781 12.234375 -17.625 C 12.765625 -17.582031 13.265625 -17.519531 13.734375 -17.4375 C 14.753906 -17.195312 15.519531 -16.832031 16.03125 -16.34375 C 16.539062 -15.851562 16.585938 -15.078125 16.171875 -14.015625 C 15.753906 -12.992188 15.300781 -11.984375 14.8125 -10.984375 C 14.320312 -9.984375 13.847656 -8.972656 13.390625 -7.953125 C 12.972656 -6.972656 12.578125 -5.972656 12.203125 -4.953125 C 11.828125 -3.929688 11.453125 -2.90625 11.078125 -1.875 C 11.035156 -1.644531 10.875 -1.226562 10.59375 -0.625 C 10.3125 -0.0195312 10.078125 0.582031 9.890625 1.1875 C 9.710938 1.789062 9.71875 2.207031 9.90625 2.4375 C 10.082031 2.625 10.414062 2.597656 10.90625 2.359375 C 11.394531 2.128906 11.941406 1.769531 12.546875 1.28125 C 13.148438 0.800781 13.71875 0.316406 14.25 -0.171875 C 14.789062 -0.660156 15.203125 -1.046875 15.484375 -1.328125 C 15.390625 -1.234375 15.296875 -1.171875 15.203125 -1.140625 C 15.109375 -1.117188 15.015625 -1.0625 14.921875 -0.96875 C 14.867188 -0.96875 14.957031 -1.128906 15.1875 -1.453125 C 15.425781 -1.785156 15.695312 -2.132812 16 -2.5 C 16.300781 -2.875 16.472656 -3.109375 16.515625 -3.203125 L 18.546875 -5.78125 L 22.3125 -10.734375 L 26.140625 -15.890625 C 26.285156 -16.035156 26.519531 -16.316406 26.84375 -16.734375 C 27.164062 -17.148438 27.5 -17.4375 27.84375 -17.59375 C 28.195312 -17.757812 28.441406 -17.539062 28.578125 -16.9375 Z M 7.734375 -8.578125 C 7.316406 -7.597656 6.910156 -6.609375 6.515625 -5.609375 C 6.117188 -4.609375 5.804688 -3.578125 5.578125 -2.515625 C 5.804688 -3.441406 6.109375 -4.332031 6.484375 -5.1875 C 6.859375 -6.050781 7.207031 -6.898438 7.53125 -7.734375 L 8.859375 -10.8125 C 8.992188 -11.039062 9.210938 -11.476562 9.515625 -12.125 C 9.816406 -12.78125 10.117188 -13.421875 10.421875 -14.046875 C 10.722656 -14.671875 10.921875 -15.007812 11.015625 -15.0625 C 10.878906 -15.007812 10.679688 -14.765625 10.421875 -14.328125 C 10.171875 -13.890625 9.953125 -13.445312 9.765625 -13 C 9.578125 -12.5625 9.457031 -12.296875 9.40625 -12.203125 C 8.757812 -10.941406 8.203125 -9.734375 7.734375 -8.578125 Z M 6.0625 4.8125 L 6.0625 4.875 C 5.96875 4.78125 5.921875 4.710938 5.921875 4.671875 L 6 4.734375 C 5.8125 4.367188 5.644531 4 5.5 3.625 C 5.363281 3.25 5.25 2.96875 5.15625 2.78125 L 5.375 3.6875 L 5.09375 2.234375 L 5.09375 2.15625 C 5.039062 2.0625 5.015625 2.003906 5.015625 1.984375 C 5.015625 1.960938 5.015625 1.953125 5.015625 1.953125 C 5.015625 1.953125 5.015625 1.960938 5.015625 1.984375 C 5.015625 2.003906 5.039062 2.039062 5.09375 2.09375 L 5.09375 1.75 C 5.039062 1.226562 5.035156 0.75 5.078125 0.3125 C 5.128906 -0.125 5.179688 -0.578125 5.234375 -1.046875 L 5.234375 -1.109375 C 5.085938 -0.503906 5.015625 0.117188 5.015625 0.765625 C 4.921875 1.648438 4.992188 2.535156 5.234375 3.421875 C 5.273438 3.515625 5.410156 3.789062 5.640625 4.25 C 5.878906 4.71875 6.09375 5.09375 6.28125 5.375 C 6.28125 5.28125 6.253906 5.234375 6.203125 5.234375 C 6.671875 5.648438 7.207031 5.972656 7.8125 6.203125 C 7.4375 6.066406 7.109375 5.867188 6.828125 5.609375 C 6.554688 5.359375 6.300781 5.09375 6.0625 4.8125 Z M 8.015625 -18.203125 C 7.828125 -18.296875 7.734375 -18.476562 7.734375 -18.75 C 7.785156 -18.707031 7.878906 -18.613281 8.015625 -18.46875 C 8.160156 -18.332031 8.234375 -18.265625 8.234375 -18.265625 C 8.554688 -18.035156 9.019531 -17.875 9.625 -17.78125 C 9.300781 -17.820312 9 -17.863281 8.71875 -17.90625 C 8.4375 -17.957031 8.203125 -18.054688 8.015625 -18.203125 Z M 15.34375 -12.765625 L 15.34375 -12.828125 L 13.875 -9.6875 Z M 5.296875 -1.328125 C 5.296875 -1.273438 5.285156 -1.25 5.265625 -1.25 C 5.242188 -1.25 5.234375 -1.226562 5.234375 -1.1875 L 5.234375 -1.109375 C 5.234375 -1.160156 5.242188 -1.195312 5.265625 -1.21875 C 5.285156 -1.238281 5.296875 -1.273438 5.296875 -1.328125 Z M 15.40625 -12.96875 L 15.34375 -12.890625 L 15.40625 -12.890625 Z M 15.40625 -12.96875 L 15.34375 -12.890625 L 15.40625 -12.890625 Z M 5.375 -2.234375 C 5.375 -2.273438 5.382812 -2.316406 5.40625 -2.359375 C 5.425781 -2.410156 5.4375 -2.460938 5.4375 -2.515625 C 5.4375 -2.460938 5.425781 -2.410156 5.40625 -2.359375 C 5.382812 -2.316406 5.375 -2.273438 5.375 -2.234375 Z M 5.640625 4.1875 C 5.640625 4.226562 5.648438 4.25 5.671875 4.25 C 5.703125 4.25 5.71875 4.273438 5.71875 4.328125 C 5.71875 4.273438 5.703125 4.238281 5.671875 4.21875 C 5.648438 4.195312 5.640625 4.1875 5.640625 4.1875 Z M 7.8125 -18.890625 L 7.734375 -18.828125 C 7.734375 -18.828125 7.734375 -18.835938 7.734375 -18.859375 C 7.734375 -18.878906 7.757812 -18.890625 7.8125 -18.890625 Z M 7.8125 -18.890625 "/></g></g></g><g fill="#b4b4b4" fill-opacity="1"><g transform="translate(303.343238, 71.301843)"><g/></g></g></g></g></svg>